<svg xmlns="http://www.w3.org/2000/svg" viewBox="0 0 236.56 301.47"><defs><style>.cls-1,.cls-2,.cls-3{stroke:#4ec2f0;stroke-miterlimit:10;}.cls-1{stroke-width:0.25px;}.cls-2{font-size:21px;fill:none;}.cls-2,.cls-3{font-family:Calibri;}.cls-3{font-size:64.37px;fill:#1d1d1b;}</style></defs><g id="Calque_2" data-name="Calque 2"><g id="LOGO"><path class="cls-1" d="M37.9,52.48s0,0-.06-.07a1.93,1.93,0,0,0,0-.24c0-.25,0-.5,0-.75l-.06-.82c0-.34-.08-.67-.13-1-.09-.53-.21-1-.35-1.56a16.58,16.58,0,0,0-1.16-2.95,17.63,17.63,0,0,0-2-3.11c-.41-.51-.85-1-1.31-1.47a19.31,19.31,0,0,0-4.51-3.42,17.74,17.74,0,0,0-3.89-1.58,13.66,13.66,0,0,0-1.54-.34l-.76-.12-.41,0-.6-.06H19.36l-.59,0-.36,0a14.34,14.34,0,0,0-2.75.59,14.08,14.08,0,0,0-3.29,1.53,14.63,14.63,0,0,0-2.2,1.72,13.43,13.43,0,0,0-1.71,2,9,9,0,0,0-1.37,3A7.73,7.73,0,0,0,6.9,45a9.74,9.74,0,0,0,0,1.08v.08a5.63,5.63,0,0,0,0,1.23,8.34,8.34,0,0,0,.8,2.76,10.9,10.9,0,0,0,1.79,2.61,10,10,0,0,0,2.9,2.14,9.5,9.5,0,0,0,2.49.84c.31.06.62.1.93.14l1.5.2a8.13,8.13,0,0,1,1.28.28,3.15,3.15,0,0,1,1.3.75,3.1,3.1,0,0,1,.68.92A4.71,4.71,0,0,1,21,59.26a11.63,11.63,0,0,1,.13,1.17,6.68,6.68,0,0,0,.36,1.83,4.58,4.58,0,0,0,1.41,2,6.41,6.41,0,0,0,2.17,1.16,5.27,5.27,0,0,0,1.12.21l.81,0a2.71,2.71,0,0,0,.29,0A7.83,7.83,0,0,0,30.34,65a9.61,9.61,0,0,0,1-.57,14.91,14.91,0,0,0,2-1.57,15.55,15.55,0,0,0,3.06-4.06,13.1,13.1,0,0,0,1.16-3.15,11.65,11.65,0,0,0,.26-1.53c0-.28.06-.57.07-.86,0-.12,0-.24,0-.36a.43.43,0,0,1,0-.07ZM25.05,37.07a3.11,3.11,0,1,1-3.11,3.1A3.12,3.12,0,0,1,25.05,37.07Zm-7.81,0a3.11,3.11,0,1,1-3.12,3.09A3.12,3.12,0,0,1,17.24,37.07Zm10.87,8.77a3.11,3.11,0,1,1,3.12,3.1A3.11,3.11,0,0,1,28.11,45.84Zm-17,2.58a3.08,3.08,0,0,1,0-6.16,3.08,3.08,0,1,1,0,6.16ZM26,61.51c-.11,0-.22,0-.33,0a2.79,2.79,0,0,1-1.42-.64,2.74,2.74,0,0,1-.86-1.31.8.8,0,0,1,0-.46,2.83,2.83,0,0,1,.83-1.51,2.51,2.51,0,0,1,2.28-.67A2.75,2.75,0,0,1,28.62,59a.57.57,0,0,1,0,.29,3.38,3.38,0,0,1-.28.81A2.67,2.67,0,0,1,26,61.51Z"/><path class="cls-1" d="M.12,45.8s0,.05,0,.08a1.6,1.6,0,0,0,.14.53,3.52,3.52,0,0,0,.6.93,3.82,3.82,0,0,0,.9.75,6,6,0,0,1,1,.71l.51.43.16.12,1.71-.84a3.71,3.71,0,0,0,0-.75,3.84,3.84,0,0,0-.18-.83,2.61,2.61,0,0,0-.69-1.09,1.9,1.9,0,0,0-.94-.49,1.58,1.58,0,0,0-.38-.05l-.78,0a4.15,4.15,0,0,1-.86-.06.93.93,0,0,1-.44-.2.88.88,0,0,1-.29-.54l0-.17-.06,0a2.27,2.27,0,0,0-.25.52,1.55,1.55,0,0,0,0,.21.49.49,0,0,1,0,.11Z"/><path class="cls-1" d="M7.22,51.59c-.13,0-2.33,1.13-2.47,1.21a.33.33,0,0,0,.07.16c.27.51.55,1,.82,1.51q1.1,2,2.23,4t2.26,3.78c.55.88,1.12,1.76,1.73,2.6.26.36.53.72.82,1.06a4.77,4.77,0,0,0,.59.6l.29.2.15,0c.18,0,.27,0,.27-.23a2.17,2.17,0,0,0,0-.36A6.75,6.75,0,0,0,13.65,65c-.28-.81-.61-1.59-1-2.37-.47-1.06-.95-2.1-1.46-3.14s-1-2.11-1.57-3.16c-.73-1.44-1.48-2.87-2.22-4.3l-.16-.31Z"/><text class="cls-2" transform="translate(45.35 101.24) rotate(-35.96)">U</text><text class="cls-2" transform="translate(56.01 93.59) rotate(-30.14)">T</text><text class="cls-2" transform="translate(64.51 88.55) rotate(-24.38)">H</text><text class="cls-2" transform="translate(76.08 83.31) rotate(-18.13)">A</text><text class="cls-2" transform="translate(85.87 80.06) rotate(-13.35)">Y</text><text class="cls-2" transform="translate(94 78.02) rotate(-8.59)">A</text><text class="cls-2" transform="matrix(1, -0.05, 0.05, 1, 105.69, 76.27)">K</text><text class="cls-2" transform="translate(115.93 75.65) rotate(2.83)">U</text><text class="cls-2" transform="matrix(0.98, 0.18, -0.18, 0.98, 128.94, 76.1)">M</text><text class="cls-2" transform="matrix(0.95, 0.31, -0.31, 0.95, 146.12, 79.47)">A</text><text class="cls-2" transform="matrix(0.91, 0.4, -0.4, 0.91, 157.34, 83.11)">R</text><text class="cls-2" transform="translate(167.46 87.55) rotate(29.66)">A</text><text class="cls-2" transform="matrix(0.81, 0.59, -0.59, 0.81, 177.71, 93.31)">N</text><path class="cls-1" d="M174.75,9.15c0-.06,0-.12,0-.17l.09-.69.09-.71c0-.11,0-.22,0-.33a.92.92,0,0,0,0-.16c0-.34,0-.67.05-1,0-.16,0-.32,0-.48s0,0,0-.06c.54-.3,1.08-.6,1.63-.87a8.78,8.78,0,0,1,1.48-.55l.2-.06a0,0,0,0,1,.06,0l1.12.82c.25.19.49.4.73.6l.55.52.2.21s0,0,0,0c0,.44,0,.88,0,1.32a5.55,5.55,0,0,1-.06.82c0,.4-.12.79-.2,1.19a.08.08,0,0,1,0,0,16.57,16.57,0,0,1-1.64.94,8.77,8.77,0,0,1-1,.39l-.58.2a.1.1,0,0,1-.09,0l-2.17-1.56-.58-.41Z"/><path class="cls-1" d="M177.5,11.84c0,.22,0,.38,0,.55a2.22,2.22,0,0,1-.06.43c-.06.33-.12.67-.19,1,0,.14,0,.28-.08.42a0,0,0,0,1,0,0,3.84,3.84,0,0,1-.9.41,2.85,2.85,0,0,1-.58.12,8.26,8.26,0,0,1-1,.08l-.67,0a.11.11,0,0,1-.08,0l-1-.5a4.66,4.66,0,0,1-.63-.43c-.29-.23-.57-.49-.85-.74l-.29-.27a.14.14,0,0,1,0-.1l0-.49c0-.14,0-.28,0-.42a4.24,4.24,0,0,1,.22-1.41c0-.16.11-.32.16-.49a.07.07,0,0,1,.06,0l1.42-.36,1.71-.44a.09.09,0,0,1,.1,0l2.72,1.94a.13.13,0,0,1,.06.12C177.52,11.5,177.51,11.7,177.5,11.84Z"/><path class="cls-1" d="M175,5.49l-.07,0c-.3-.16-.61-.31-.92-.45a7.38,7.38,0,0,0-1.31-.41l-.58-.13,0,0v0c0-.27,0-.55,0-.83a4.73,4.73,0,0,1,.22-1.18,2.81,2.81,0,0,0,.1-.31l0-.05c.41-.28.82-.55,1.25-.79a6.09,6.09,0,0,1,1-.45l.73-.24h.06c.46.13.92.27,1.37.44a10.12,10.12,0,0,1,1.21.54l.23.13s0,0,0,.05c0,.47,0,.94,0,1.4,0,.28,0,.55,0,.83V4h0c-.28.08-.57.17-.85.27a8,8,0,0,0-1,.46l-1.22.65Z"/><path class="cls-1" d="M182.11,11.74l0,0-.91-1.55c-.09-.16-.17-.32-.26-.47a.17.17,0,0,1,0-.07c.05-.21.09-.42.13-.62a7.5,7.5,0,0,0,.11-.81,11,11,0,0,0,0-1.28c0-.21,0-.43,0-.64a.07.07,0,0,1,0-.06l1.44-1a.06.06,0,0,1,.06,0,2,2,0,0,1,.42.25,2.44,2.44,0,0,1,.27.29l0,0a7.54,7.54,0,0,1,.3,1.13c0,.24.08.47.1.71a8.7,8.7,0,0,1,0,1,6.82,6.82,0,0,1-.07.79,6.53,6.53,0,0,1-.21,1.07c-.06.19-.12.38-.19.57a.05.05,0,0,1,0,0l-.41.31a2.24,2.24,0,0,1-.64.27Z"/><path class="cls-1" d="M170,7.14c.08.26.16.5.24.75s.16.46.26.68a5.22,5.22,0,0,0,.52.88c.13.17.27.33.41.5a.09.09,0,0,1,0,.09c-.09.25-.18.5-.25.76A3.91,3.91,0,0,0,171,12c0,.24,0,.48,0,.71,0,.06,0,.11,0,.17v.07l-.26.08a2.05,2.05,0,0,1-.74,0l-.43-.06-.06,0a9.32,9.32,0,0,1-.57-1,7.44,7.44,0,0,1-.57-1.44,8,8,0,0,1-.21-1,9,9,0,0,1-.09-1.37,7.93,7.93,0,0,1,.07-.84.05.05,0,0,1,0-.06c.22-.06.43-.13.65-.17a1.53,1.53,0,0,1,.3,0,3.83,3.83,0,0,1,.68,0Z"/><path class="cls-1" d="M172.38,2.09l0,.08a5.84,5.84,0,0,0-.22.82,4.07,4.07,0,0,0-.07.61c0,.28,0,.57,0,.86a.09.09,0,0,1,0,.06c-.22.19-.44.38-.65.58a5,5,0,0,0-1,1.29c-.12.21-.23.42-.34.64l0,0-.2,0a4.1,4.1,0,0,0-.7,0,2.1,2.1,0,0,0-.5.09l-.36.11h0v0A7.72,7.72,0,0,1,169.47,4a7.51,7.51,0,0,1,1.31-1.5l.26-.22a.22.22,0,0,1,.11,0l.34-.09a2.5,2.5,0,0,1,.67-.06Z"/><path class="cls-1" d="M179.69,14.63a1.2,1.2,0,0,1-.15.67l-.07.11a.14.14,0,0,1-.09.08c-.21.1-.43.2-.65.28a8.08,8.08,0,0,1-1.28.35c-.24.05-.49.08-.73.11a9.49,9.49,0,0,1-1.19,0,7.65,7.65,0,0,1-1.72-.3h-.08a3.29,3.29,0,0,1,.2-.93h0l1,0c.28,0,.55-.05.83-.09a3.27,3.27,0,0,0,1.05-.36l.28-.15.06,0,.81.05c.35,0,.7,0,1.05.11l.61.12Z"/><path class="cls-1" d="M179.57,15.39l0-.06a1.24,1.24,0,0,0,.15-.42,1.93,1.93,0,0,0,0-.24.13.13,0,0,1,.06-.11l.58-.45a6.13,6.13,0,0,0,.78-.75,5.4,5.4,0,0,0,.54-.78c.13-.24.25-.48.37-.73a.12.12,0,0,1,.07,0,3.24,3.24,0,0,0,.53-.16,2.36,2.36,0,0,0,.48-.29l.14-.1a7.25,7.25,0,0,1-.89,1.67,8.1,8.1,0,0,1-1.27,1.41A7.66,7.66,0,0,1,179.57,15.39Z"/><path class="cls-1" d="M180.79,2.18l0,0a7.52,7.52,0,0,0-.78-.32,3.84,3.84,0,0,0-.83-.18c-.21,0-.43,0-.64,0l-.1,0c-.31-.17-.62-.33-.94-.47a9.41,9.41,0,0,0-1-.39l-.67-.21h0a8.76,8.76,0,0,1,1.36.06,8.56,8.56,0,0,1,1.33.31,7.21,7.21,0,0,1,1.25.53A6.19,6.19,0,0,1,180.79,2.18Z"/><path class="cls-1" d="M181.41,2.7a7.8,7.8,0,0,1,1.9,2.84,0,0,0,0,1,0,0,1.46,1.46,0,0,0-.5-.35.2.2,0,0,1-.13-.15,6.09,6.09,0,0,0-.28-.78,4.8,4.8,0,0,0-.49-.85c-.15-.22-.3-.42-.45-.63l0,0Z"/><path class="cls-1" d="M213.24,49.8c-.37.65-.7,1.23-1,1.81-.86,1.44-1.72,2.87-2.57,4.31a.61.61,0,0,1-.55.33,5.44,5.44,0,0,0-4.16,8.55c.11.15.21.28.08.49-1.16,2-2.32,3.94-3.47,5.91l-.1.11-.34-.17-4-2.31c-.42-.24-.42-.23-.67.2-.36.61-.71,1.24-1.07,1.85-.15.24-.11.38.14.52q6.17,3.55,12.32,7.12c.24.13.37.11.5-.13.37-.67.75-1.33,1.15-2,.15-.26.09-.38-.15-.52l-4-2.29-.38-.21.9-1.55c.85-1.49,1.7-3,2.53-4.46a.48.48,0,0,1,.52-.28,5.46,5.46,0,0,0,5.3-7.94.59.59,0,0,1,0-.43c1.13-2,2.27-4.08,3.41-6.12,0,0,.08-.09.18-.22.67.66,1.34,1.28,2,2a10.53,10.53,0,0,1,2,3.12,6,6,0,0,1-.65,6,15.49,15.49,0,0,1-3.32,3.58A4.68,4.68,0,0,0,216,71a44.66,44.66,0,0,1-.32,7.5,9.69,9.69,0,0,1-4.83,7.25,9.89,9.89,0,0,1-5.76,1.06,18.54,18.54,0,0,1-6.47-1.88,24.54,24.54,0,0,1-7.44-5.28,12.72,12.72,0,0,1-2.53-3.86,8.88,8.88,0,0,1,1.08-8.9,14.33,14.33,0,0,1,4.49-3.9c1.28-.81,2.61-1.53,3.9-2.31a4.79,4.79,0,0,0,2.44-3.55,14,14,0,0,1,2-5.64,5.37,5.37,0,0,1,3.32-2.38,10.84,10.84,0,0,1,5.68.19C212.1,49.41,212.64,49.61,213.24,49.8Z"/><path class="cls-1" d="M234.34,16.92c.17.31.25.67.47.79s.55,0,1-.05c0,.15,0,.33,0,.52a.57.57,0,0,0,.34.51c.07,0,.11.19.12.29a3.68,3.68,0,0,0,.09.76.64.64,0,0,1,0,.64l-4.19,7.24a.74.74,0,0,1-.17.24,11.59,11.59,0,0,1-1.45.87c.2-.27.42-.52.6-.8q1.2-1.93,2.39-3.89c.45-.75.88-1.5,1.3-2.27a.86.86,0,0,0-1.3-1.12,1.84,1.84,0,0,0-.28.39c-1,1.73-2,3.47-3,5.2-.36.61-.76,1.2-1.15,1.82l-.41-.24c.36-.69.69-1.37,1.07-2q1.47-2.58,3-5.14a1,1,0,0,0,.08-.95.85.85,0,0,0-1.5,0c-.51.85-1,1.72-1.5,2.58s-.91,1.52-1.32,2.3-.67,1.42-1,2.13a.52.52,0,0,1-.14.2,4.81,4.81,0,0,1,.37-2.26c1.36-2.26,2.66-4.56,4-6.86a.65.65,0,0,1,.57-.41,2,2,0,0,0,.66-.29c.08,0,.19-.12.22-.1.41.37.81,0,1.21,0Z"/><path class="cls-1" d="M210,56.8c-.25.45-.49.87-.75,1.29-.05.08-.2.11-.31.13a3.5,3.5,0,0,0-2.78,4.7.84.84,0,0,1-.05.54c-.21.42-.47.83-.71,1.25a4.94,4.94,0,0,1,.08-6.25C206.61,57,209,56.13,210,56.8Z"/><path class="cls-1" d="M208.78,66.71c.29-.5.55-1,.84-1.42a.44.44,0,0,1,.31-.15,3.5,3.5,0,0,0,2.72-4.74.75.75,0,0,1,0-.53c.19-.39.42-.75.67-1.18a2.22,2.22,0,0,1,.41.39,5.1,5.1,0,0,1-4.72,7.69Z"/><path class="cls-1" d="M198.65,72.77l-2.36-1.36a3.21,3.21,0,0,0,1.12-2l2.36,1.36Z"/><path class="cls-1" d="M208.54,75.88a3,3,0,0,0-1.12,2l-2.36-1.37,1.12-2Z"/><path class="cls-1" d="M212.3,60.61c.81,1.61-.6,4.07-2.37,4.11Z"/><path class="cls-1" d="M208.86,58.63l-2.37,4.1A3,3,0,0,1,208.86,58.63Z"/><path class="cls-1" d="M203.42,72.46l-.38-.22,3.42-5.92.38.22Z"/><path class="cls-1" d="M208,64.48l-.35-.2c.06-.12.11-.23.17-.33l2.77-4.77c.08-.14.12-.37.37-.21s.06.28,0,.4Z"/><path class="cls-1" d="M205.33,65.4c.26.13.28.25.17.44l-3.27,5.6c-.11.19-.22.31-.43.08Z"/><path class="cls-1" d="M208.2,67.07,206.54,70l-1.68,3c-.11.2-.21.34-.44.09,0-.07.06-.17.1-.25l3.19-5.59C207.82,67,207.93,66.85,208.2,67.07Z"/><path class="cls-1" d="M199.39,72.33c.08-.25.15-.37.38-.25l5.5,2.57c.1,0,.25.17.24.23,0,.24-.19.22-.38.13l-3.93-1.84Z"/><path class="cls-1" d="M206,65.84c0,.19.12.35.07.43q-1.67,2.87-3.34,5.72l-.06,0c-.15,0-.32-.09-.17-.33L205.82,66S205.88,66,206,65.84Z"/><path class="cls-1" d="M203.78,72.65c.05-.09.08-.17.12-.24L207,67c.1-.17.18-.42.48-.12-.33.57-.67,1.15-1,1.74l-2.26,4C204.12,72.77,204,72.92,203.78,72.65Z"/><path class="cls-1" d="M211.54,59.35c0,.13.07.28,0,.37q-1.37,2.41-2.76,4.82c0,.09-.21.12-.32.17l-.07-.1,3-5.24Z"/><path class="cls-1" d="M207.23,64c0-.12-.08-.28,0-.36.93-1.61,1.86-3.21,2.81-4.81.05-.09.21-.12.32-.18l.07.1-3,5.24Z"/><path class="cls-1" d="M209.11,64.74l2.79-4.84H212c0,.14,0,.31,0,.42-.79,1.42-1.6,2.84-2.41,4.26-.07.12-.24.19-.37.28Z"/><path class="cls-1" d="M209.68,58.62l-2.8,4.85c-.24-.15-.22-.3-.11-.5.83-1.4,1.64-2.8,2.47-4.19.07-.12.24-.19.36-.28Z"/><path class="cls-1" d="M231.82,21.55l-.68,1.18a8.8,8.8,0,0,1-.8-.46.28.28,0,0,1-.05-.27c.17-.33.37-.65.57-1Z"/><path class="cls-1" d="M232.92,22.18l.94.55-.68,1.18c-.26-.15-.53-.29-.78-.46a.25.25,0,0,1-.07-.23C232.51,22.87,232.72,22.54,232.92,22.18Z"/><path class="cls-1" d="M232.74,24.71l-.67,1.16-.93-.54.66-1.16Z"/><path class="cls-1" d="M230.68,23.52,230,24.68l-.93-.54.66-1.16Z"/><path class="cls-1" d="M196.78,69.08a.69.69,0,0,1,.16,1c-.52,1-.74,1.18-1.3,1Z"/><path class="cls-1" d="M208,78.21a.7.7,0,0,1-.16-1c.51-1,.75-1.17,1.31-1Z"/><path class="cls-1" d="M204.71,76.27l-1-.56.43-.75,1,.47Z"/><path class="cls-1" d="M228.59,24.93l.95.55c-.14.31-.25.65-.63.64a.77.77,0,0,1-.54-.29C228.16,25.51,228.41,25.24,228.59,24.93Z"/><path class="cls-1" d="M230.66,26.12l.94.54c-.13.31-.23.64-.61.65a.73.73,0,0,1-.54-.27C230.21,26.71,230.47,26.43,230.66,26.12Z"/><path class="cls-1" d="M233.41,21.4c.13-.34.27-.67.66-.66a.72.72,0,0,1,.5.29c.22.34,0,.61-.24.9Z"/><path class="cls-1" d="M232.28,20.74l-.93-.53c.11-.31.23-.63.6-.66a.71.71,0,0,1,.54.27C232.73,20.15,232.49,20.43,232.28,20.74Z"/><path class="cls-1" d="M201.24,71.66l-.32.56-1.16-.54.38-.65Z"/><path class="cls-1" d="M207.44,64.61l.39.23c-.24.42-.47.84-.73,1.25a.29.29,0,0,1-.27,0,.24.24,0,0,1-.08-.26C207,65.42,207.2,65,207.44,64.61Z"/><path class="cls-1" d="M227,32.73c-.16.28-.31.56-.48.83a.54.54,0,0,1-.2.1c0-.07-.05-.16,0-.21.32-.58.65-1.15,1-1.72,0-.05.13-.06.19-.08s0,.16,0,.22c-.15.29-.32.57-.49.86Z"/><path class="cls-1" d="M225.63,35.08c-.16.27-.31.55-.48.82,0,.06-.13.08-.2.12s-.06-.19,0-.25c.31-.56.64-1.13,1-1.68,0-.06.13-.07.19-.1s0,.16,0,.22l-.49.86Z"/><path class="cls-1" d="M223.81,34c.16-.28.31-.56.48-.83a.54.54,0,0,1,.2-.1c0,.07,0,.17,0,.22-.32.57-.66,1.15-1,1.71,0,0-.14,0-.21.08a.58.58,0,0,1,0-.23c.15-.29.32-.57.49-.86Z"/><path class="cls-1" d="M225.38,31.8c-.14.26-.28.52-.44.76a1,1,0,0,1-.26.18.89.89,0,0,1,0-.29c.3-.53.61-1.06.93-1.58,0-.07.14-.1.21-.14a.66.66,0,0,1,0,.28c-.14.27-.3.53-.45.79Z"/><path class="cls-1" d="M227.49,33c-.16.28-.31.55-.48.82,0,.06-.13.08-.19.11s-.06-.16,0-.22c.32-.57.65-1.15,1-1.71,0-.05.13-.06.2-.09s0,.17,0,.23c-.15.29-.32.57-.49.86Z"/><path class="cls-1" d="M224.33,34.31c.16-.28.32-.56.49-.83,0-.06.15-.07.22-.1s0,.17,0,.22c-.31.56-.63,1.11-1,1.66,0,.06-.14.08-.22.12a.7.7,0,0,1,0-.25c.15-.28.32-.55.47-.83Z"/><path class="cls-1" d="M228.64,30.48c.17-.29.33-.58.51-.86,0-.06.12-.07.19-.11s0,.17,0,.22q-.49.9-1,1.77c0,.06-.13.08-.2.12s0-.18,0-.24c.16-.31.34-.6.51-.9Z"/><path class="cls-1" d="M226.71,35.7c-.15.27-.29.54-.46.79-.05.07-.16.09-.24.14s0-.19,0-.25c.31-.56.62-1.11.95-1.65,0-.07.14-.09.21-.12s0,.18,0,.25c-.15.28-.31.55-.47.82Z"/><path class="cls-1" d="M219.84,43.27c.26-.45.52-.91.79-1.36a.26.26,0,0,1,.21,0,.26.26,0,0,1,.06.21c-.23.42-.47.83-.72,1.24,0,.06-.19,0-.29.07Z"/><path class="cls-1" d="M208,66.65c.31-.54.55-1,.82-1.4.05-.07.22-.08.33-.12l.09.1c-.26.45-.51.91-.79,1.34C208.41,66.64,208.23,66.62,208,66.65Z"/><path class="cls-1" d="M205.71,65.25c0-.11-.11-.25-.07-.33.23-.45.5-.88.75-1.32l.14,0c0,.13.07.29,0,.39-.22.42-.47.83-.71,1.24Z"/><path class="cls-1" d="M199,73c.07-.29.2-.37.45-.23s.57.27.88.42l-.25.44Z"/><path class="cls-1" d="M220.8,37.84a6.67,6.67,0,0,1,.37-.64c.05-.06.16-.08.25-.12s0,.19,0,.25c-.25.45-.51.89-.78,1.33,0,.06-.15.07-.23.11s0-.2,0-.27c.11-.24.25-.45.38-.68Z"/><path class="cls-1" d="M229.89,29.8a5.1,5.1,0,0,1-1.26,2.09A6.26,6.26,0,0,1,229.89,29.8Z"/><path class="cls-1" d="M224.64,31.37c.16-.26.3-.53.47-.79,0-.07.16-.1.24-.15s0,.19,0,.26c-.31.54-.63,1.07-1,1.6,0,.07-.14.1-.21.15a.63.63,0,0,1,0-.28c.14-.27.3-.53.45-.8Z"/><path class="cls-1" d="M224.35,39.93c-.12.21-.23.43-.37.63s-.17.08-.25.12,0-.19,0-.25c.24-.46.5-.9.76-1.34,0-.06.14-.08.22-.12s.05.2,0,.27c-.11.23-.25.45-.38.67Z"/><path class="cls-1" d="M221.32,40.72a6.59,6.59,0,0,1,.34-.57c0-.06.14-.08.22-.11s.08.18.05.24c-.22.4-.44.79-.68,1.17,0,.06-.16.06-.24.08s0-.18,0-.24a6.55,6.55,0,0,1,.32-.58Z"/><path class="cls-1" d="M223.49,33.8c-.17.28-.32.57-.5.85,0,.06-.15.08-.22.11s0-.19,0-.25c.32-.55.64-1.09,1-1.63,0-.06.14-.08.22-.12s0,.18,0,.25c-.14.27-.3.53-.45.8Z"/><path class="cls-1" d="M207,64.19c0,.1.12.24.08.31-.22.42-.46.83-.7,1.24h-.15c0-.12-.08-.27,0-.35.21-.4.45-.79.67-1.18Z"/><path class="cls-1" d="M207.39,66.31c.23-.39.44-.79.69-1.17,0-.08.21-.09.33-.14l.07.12c-.23.4-.46.81-.7,1.2-.05.07-.21.08-.32.12Z"/><path class="cls-1" d="M222.14,38.6c-.13.22-.25.45-.39.66s-.16.09-.25.13a.69.69,0,0,1,0-.25c.24-.44.49-.87.76-1.3,0-.06.16-.08.24-.13a.89.89,0,0,1,0,.29c-.1.2-.23.4-.34.6Z"/><path class="cls-1" d="M222.67,39c-.13.22-.25.45-.39.66,0,.05-.14.05-.21.07s-.06-.16,0-.21c.26-.47.53-.94.81-1.39,0-.06.13-.07.2-.1s.07.18,0,.24c-.12.25-.27.48-.41.73Z"/><path class="cls-1" d="M223.54,39.44c.13-.22.25-.45.39-.67,0-.06.14-.07.22-.11s0,.17,0,.22q-.37.69-.78,1.38c0,.05-.13.07-.19.1s-.06-.18,0-.24c.12-.23.25-.45.38-.68Z"/><path class="cls-1" d="M223.22,39.28c-.13.22-.25.45-.39.66s-.13.07-.2.1,0-.16,0-.22c.26-.47.52-.94.8-1.4,0-.05.14-.05.21-.07a.53.53,0,0,1,0,.22c-.12.24-.26.47-.4.71Z"/><path class="cls-1" d="M226.88,28c-.19.35-.36.64-.53.93s-.4.7-.62,1c0,.06-.13.07-.19.11s-.06-.13,0-.16c.39-.64.78-1.29,1.18-1.93C226.69,28,226.75,28,226.88,28Z"/><path class="cls-1" d="M221.45,44.61c0,.1.13.23.1.3-.21.4-.45.8-.68,1.2h-.13c0-.11-.11-.26-.07-.34.2-.39.43-.76.65-1.14Z"/><path class="cls-1" d="M219.53,44.46a4.66,4.66,0,0,1-.32.53c0,.06-.16.07-.24.06a.24.24,0,0,1,0-.21c.19-.36.4-.72.62-1.08,0,0,.16,0,.24-.06a.77.77,0,0,1,0,.25,5.14,5.14,0,0,1-.29.51Z"/><path class="cls-1" d="M222.19,36c-.12.22-.25.45-.39.66,0,0-.13,0-.2.07s-.07-.16,0-.21c.26-.46.53-.91.81-1.36,0-.06.15-.06.23-.08s0,.16,0,.22c-.12.24-.26.47-.4.7Z"/><path class="cls-1" d="M218.2,42.8c-.24.41-.47.82-.72,1.22a.19.19,0,0,1-.2,0c-.06-.06-.11-.18-.08-.23.2-.36.41-.72.64-1.07,0-.06.2-.05.3-.07Z"/><path class="cls-1" d="M225.48,37.89c-.13.22-.26.45-.4.66s-.12.07-.19.11-.07-.19,0-.25c.25-.46.51-.92.78-1.37,0,0,.13,0,.2-.08s.06.16,0,.22c-.12.24-.26.47-.4.7Z"/><path class="cls-1" d="M223.07,36.46c.13-.22.25-.45.39-.66,0,0,.13-.06.2-.09s.05.16,0,.21c-.26.46-.52.91-.79,1.36,0,.06-.15.07-.23.09s0-.16,0-.22c.12-.23.26-.46.4-.69Z"/><path class="cls-1" d="M223.79,38.05c0-.09,0-.2,0-.27.24-.45.5-.9.76-1.34,0,0,.13-.07.2-.11s0,.19,0,.25c-.27.49-.56,1-.84,1.46Z"/><path class="cls-1" d="M223.84,37c-.13.22-.24.43-.38.64,0,.06-.14.08-.21.12s-.06-.19,0-.25c.25-.45.51-.89.77-1.33,0-.06.15-.07.22-.1s0,.19,0,.25c-.11.23-.25.45-.38.67Z"/><path class="cls-1" d="M229.71,20.48l-.35-.2.6-1.05.36.19Z"/><path class="cls-1" d="M227.43,24.43l-.35-.21.6-1,.35.21Z"/><path class="cls-1" d="M219.64,39.76a6.48,6.48,0,0,1,.33-.57c.05-.06.17-.07.26-.1s.05.18,0,.25c-.21.37-.42.74-.65,1.1-.05.07-.17.08-.25.12a.63.63,0,0,1,0-.27,5.7,5.7,0,0,1,.3-.54Z"/><path class="cls-1" d="M228.57,22.47l-.36-.22.6-1,.37.21Z"/><path class="cls-1" d="M234.89,23.49l.61-1,.38.19-.61,1.06Z"/><path class="cls-1" d="M234.13,25.66l-.36-.21.6-1,.36.22Z"/><path class="cls-1" d="M232.57,27.51l.65-1.13.41.21c-.19.32-.36.65-.57.94C233,27.59,232.79,27.52,232.57,27.51Z"/><path class="cls-1" d="M221.54,44.23c.25-.44.49-.87.75-1.3,0-.06.15-.07.23-.11s.08.19,0,.25c-.21.4-.43.8-.66,1.19,0,.07-.2.07-.31.11Z"/><path class="cls-1" d="M227.85,28.55c0,.15,0,.23-.06.29-.33.59-.67,1.17-1,1.75,0,.06-.13.09-.19.13s-.05-.17,0-.22c.34-.61.69-1.21,1.05-1.81C227.65,28.64,227.73,28.62,227.85,28.55Z"/><path class="cls-1" d="M228.93,29.22l-1.22,2.12h-.1a.74.74,0,0,1,0-.26C228,30.27,228.65,29.26,228.93,29.22Z"/><path class="cls-1" d="M216.53,45.68c-.27,0-.36-.15-.21-.38s.3-.53.48-.78c0-.08.18-.1.27-.15,0,.1.08.23,0,.3C216.93,45,216.73,45.35,216.53,45.68Z"/><path class="cls-1" d="M228.35,28.92a1.57,1.57,0,0,1-.08.29c-.31.54-.62,1.09-.94,1.62,0,.08-.15.12-.23.18,0-.09,0-.21,0-.28.35-.63.71-1.25,1.07-1.87Z"/><path class="cls-1" d="M227.32,28.32a1.23,1.23,0,0,1-.08.29c-.31.55-.62,1.09-.94,1.62-.05.08-.16.12-.24.18,0-.1,0-.21,0-.29.35-.62.71-1.24,1.07-1.86Z"/><path class="cls-1" d="M218,46.51c.2-.35.38-.68.59-1,0-.07.18-.09.27-.13s.06.21,0,.28c-.14.28-.32.55-.47.83S218.13,46.72,218,46.51Z"/><path class="cls-1" d="M220,47.69c-.26-.06-.31-.18-.19-.38s.31-.56.48-.82c0-.07.17-.08.25-.12s.08.22,0,.29C220.39,47,220.19,47.34,220,47.69Z"/><path class="cls-1" d="M225.11,34.73c-.16.28-.31.56-.49.82,0,.07-.15.1-.23.15s0-.19,0-.25q.47-.84,1-1.65c0-.06.14-.08.22-.12s0,.19,0,.26c-.14.27-.3.53-.46.79Z"/><path class="cls-1" d="M226.72,34.41c-.34.59-.68,1.18-1,1.77,0,.07-.14.09-.21.14s0-.19,0-.25c.3-.56.62-1.11.94-1.66,0-.07.15-.09.23-.13Z"/><path class="cls-1" d="M218.57,41.56a6.59,6.59,0,0,1,.34-.57c0-.06.16-.07.25-.11s.06.19,0,.25c-.21.39-.44.79-.69,1.17,0,.06-.15.07-.22.1s-.07-.2,0-.27a6.55,6.55,0,0,1,.32-.58Z"/><path class="cls-1" d="M226.23,32.27c.16-.27.31-.55.48-.82,0-.06.13-.08.19-.12s0,.17,0,.23c-.32.56-.64,1.13-1,1.69a.54.54,0,0,1-.2.1.7.7,0,0,1,0-.25c.15-.28.32-.55.48-.83Z"/><path class="cls-1" d="M219.14,41.93c.12-.2.22-.41.36-.6s.14-.08.22-.12.05.18,0,.24q-.33.6-.69,1.17c0,.06-.15.07-.22.1s0-.18,0-.25.2-.36.3-.55Z"/><path class="cls-1" d="M226.43,31a1,1,0,0,1-.06.26c-.3.53-.61,1.06-.92,1.59,0,.07-.16.1-.24.15a.72.72,0,0,1,0-.26c.32-.56.65-1.12,1-1.68,0,0,.08-.06.11-.09Z"/><path class="cls-1" d="M221.64,43.34c-.12.2-.22.41-.35.6s-.14.06-.2.08-.07-.16,0-.21c.23-.42.47-.84.71-1.25,0,0,.14,0,.21-.05s.05.14,0,.19c-.11.22-.24.43-.37.64Z"/><path class="cls-1" d="M219.48,47.9c.27.05.32.17.2.37l-.52.91c-.25,0-.36-.12-.2-.38S219.3,48.21,219.48,47.9Z"/><path class="cls-1" d="M228.51,32.2c0,.13,0,.24,0,.32-.3.55-.6,1.1-.92,1.64,0,.05-.12.08-.18.12s-.06-.17,0-.21l1.05-1.82Z"/><path class="cls-1" d="M219.73,42.2c.11-.19.21-.38.33-.56s.15-.07.22-.11.05.17,0,.22c-.23.41-.46.81-.7,1.2,0,.06-.13.07-.2.1s-.05-.18,0-.25.22-.4.34-.6Z"/><path class="cls-1" d="M220.79,40.38c.11-.19.21-.39.33-.57s.14-.06.2-.09.06.17,0,.22c-.21.39-.44.78-.68,1.17,0,0-.15.06-.22.09s0-.16,0-.22.23-.41.35-.61Z"/><path class="cls-1" d="M220.45,40.23a5.89,5.89,0,0,1-.32.54c0,.06-.14.09-.21.13s-.06-.19,0-.25c.21-.38.44-.76.67-1.14,0,0,.15-.07.23-.1a.68.68,0,0,1,0,.25c-.1.2-.22.39-.33.58Z"/><path class="cls-1" d="M222.6,42.37c.24-.41.47-.83.72-1.23,0-.07.16-.09.24-.13s.05.2,0,.28c-.19.37-.4.75-.63,1.11,0,.07-.19.08-.29.11Z"/><path class="cls-1" d="M222.45,41.34c.11-.2.22-.39.34-.57s.13-.06.2-.09.06.17,0,.22c-.22.41-.45.82-.69,1.21,0,0-.12,0-.18.08s-.08-.16-.05-.21c.11-.22.24-.43.36-.64Z"/><path class="cls-1" d="M209.62,58.13c.2-.34.38-.68.59-1,0,0,.16-.06.24,0a.25.25,0,0,1,.05.2,7.84,7.84,0,0,1-.49.83c0,.08-.21.09-.31.14Z"/><path class="cls-1" d="M216.12,50.39a3,3,0,0,1-.25.41.3.3,0,0,1-.23,0s-.1-.16-.07-.2a9.17,9.17,0,0,1,.5-.86.23.23,0,0,1,.2-.06c.06,0,.12.17.1.22a3.25,3.25,0,0,1-.25.45Z"/><path class="cls-1" d="M217.4,48.16c-.25,0-.34-.13-.21-.35s.3-.53.47-.78c0-.06.17-.05.26-.08s.06.19,0,.25C217.78,47.52,217.59,47.83,217.4,48.16Z"/><path class="cls-1" d="M212.31,59.77c-.07-.14-.18-.25-.15-.3.17-.34.36-.68.56-1,0,0,.16,0,.18,0a.25.25,0,0,1,0,.22C212.74,59,212.55,59.37,212.31,59.77Z"/><path class="cls-1" d="M215.67,47.16c-.32-.06-.36-.18-.22-.4s.3-.5.46-.75c0,0,.15,0,.23-.08s.1.2.07.26C216.05,46.52,215.86,46.83,215.67,47.16Z"/><path class="cls-1" d="M214.06,49.88c-.3-.07-.37-.19-.23-.41s.25-.45.4-.66.18-.09.28-.13.09.22.06.3C214.41,49.28,214.23,49.57,214.06,49.88Z"/><path class="cls-1" d="M217.29,51.76l.62-1.07c.27.05.35.16.19.4s-.25.43-.36.65S217.48,52,217.29,51.76Z"/><path class="cls-1" d="M221.55,38.34c-.13.22-.25.45-.39.67,0,0-.13.05-.2.07s-.05-.15,0-.19c.27-.48.55-1,.84-1.43,0,0,.11-.05.17-.07s.05.16,0,.22c-.12.25-.27.49-.41.73Z"/><path class="cls-1" d="M218.13,43.65c.1-.16.19-.34.3-.5s.15-.07.22-.1,0,.17,0,.22c-.19.36-.39.71-.61,1,0,0-.13.06-.2.09s-.05-.18,0-.25.19-.34.28-.51Z"/><path class="cls-1" d="M221,44.44c-.23.4-.46.8-.7,1.2,0,0-.13,0-.2.07s-.05-.17,0-.22c.19-.36.38-.71.6-1.06,0-.06.17-.06.26-.09Z"/><path class="cls-1" d="M220.07,44.81c-.1.17-.19.34-.3.5s-.13.06-.19.09-.08-.15-.05-.2c.2-.38.42-.74.64-1.11,0,0,.11,0,.17-.07s.07.16,0,.21a6.55,6.55,0,0,1-.32.58Z"/><path class="cls-1" d="M214.88,48.43c-.35-.07-.34-.26-.16-.44s.14-.75.72-.51Z"/><path class="cls-1" d="M218.9,46.27c.09-.16.18-.32.28-.47s.13-.06.2-.08.07.14.05.18c-.18.35-.38.69-.58,1a.17.17,0,0,1-.17,0,.19.19,0,0,1-.06-.17c.09-.18.19-.35.29-.51Z"/><path class="cls-1" d="M217.42,45.43a5.3,5.3,0,0,1-.28.47c0,.05-.14,0-.21.06s-.06-.15,0-.19c.18-.33.37-.66.57-1,0,0,.14,0,.21-.06s0,.17,0,.23a3.87,3.87,0,0,1-.27.48Z"/><path class="cls-1" d="M222.54,36.16c.13-.23.25-.45.39-.67,0-.05.13-.06.19-.09s0,.17,0,.22c-.26.46-.52.91-.8,1.36,0,.05-.13.06-.19.09s0-.16,0-.22c.12-.24.26-.47.39-.7Z"/><path class="cls-1" d="M224.92,37.56c-.12.21-.24.43-.37.63a.6.6,0,0,1-.21.14c0-.08-.05-.18,0-.24l.76-1.34s.13-.07.19-.11,0,.18,0,.25c-.12.23-.25.44-.38.67Z"/><path class="cls-1" d="M217.75,45.57c.09-.15.16-.3.26-.44s.14-.06.2-.09.08.16,0,.21c-.18.33-.37.66-.58,1,0,0-.11,0-.17.06s-.07-.15,0-.21a5.14,5.14,0,0,1,.29-.51Z"/><path class="cls-1" d="M228.76,24.69l.17-.31c.25.14.48.29.71.41s.23.25,0,.43Z"/><path class="cls-1" d="M216.91,49a2,2,0,0,1-.19.31c-.05.05-.15.05-.23.08s-.09-.2-.06-.26a3.94,3.94,0,0,1,.36-.63c0-.06.17-.06.26-.09s.06.19,0,.27a1.41,1.41,0,0,1-.17.32Z"/><path class="cls-1" d="M230.83,25.89c0-.28.17-.34.39-.19a4.39,4.39,0,0,0,.47.27c.26.13.24.27,0,.44Z"/><path class="cls-1" d="M231,20.73l.16-.3c.31.18.61.34.88.53,0,0,0,.19-.06.34Z"/><path class="cls-1" d="M218.66,49.4c.26.05.32.17.18.39a3.72,3.72,0,0,0-.27.48c-.11.22-.24.27-.44,0Z"/><path class="cls-1" d="M233.11,21.94c.16-.37.34-.33,1.07.25l-.16.27Z"/><path class="cls-1" d="M233,24.14c-.15.37-.32.33-1-.23C232,23.51,232.1,23.54,233,24.14Z"/><path class="cls-1" d="M230.82,23.24l-.91-.52c.05-.25.15-.34.37-.19s.34.2.51.29S231,23.07,230.82,23.24Z"/><path class="cls-1" d="M218.92,44.11a4.14,4.14,0,0,1-.3.5c0,.06-.14.07-.22.11s0-.17,0-.23c.19-.35.4-.7.61-1,0-.05.13-.06.19-.09s.06.18,0,.25-.19.34-.29.51Z"/><path class="cls-1" d="M215.91,47.46c.25-.44.43-.77.63-1.09,0,0,.13-.06.2-.09s.06.18,0,.24a7.35,7.35,0,0,1-.51.85C216.22,47.43,216.09,47.42,215.91,47.46Z"/><path class="cls-1" d="M229.44,28.26c.2-.36.41-.72.62-1.08h.12c0,.13.09.28,0,.37C229.91,28.12,229.65,28.34,229.44,28.26Z"/><path class="cls-1" d="M215.59,51.3a7.49,7.49,0,0,1-.42.72c0,.06-.17,0-.26.08s-.08-.18,0-.24a3.55,3.55,0,0,1,.36-.63c.06-.07.22,0,.33-.06Z"/><path class="cls-1" d="M221.91,41a6.59,6.59,0,0,1,.34-.57c0-.05.13-.06.2-.09s.05.16,0,.22c-.23.4-.46.81-.7,1.21,0,0-.11.05-.17.08s-.07-.16,0-.21C221.66,41.44,221.79,41.23,221.91,41Z"/><path class="cls-1" d="M217.07,52.14c.24,0,.33.13.2.35a5.15,5.15,0,0,1-.33.56c0,.06-.15.06-.23.08s-.09-.18-.07-.24C216.77,52.64,216.93,52.39,217.07,52.14Z"/><path class="cls-1" d="M211.78,59.15c0-.1-.13-.22-.1-.28a4.38,4.38,0,0,1,.4-.7c0-.05.13,0,.21-.05s.07.19,0,.25c-.13.26-.29.51-.43.76Z"/><path class="cls-1" d="M228.93,26.54c-.16.31-.32.63-.49.94,0,.06-.12.08-.19.12s-.07-.17,0-.24a5.2,5.2,0,0,1,.32-.77c.06-.09.22-.11.34-.17Z"/><path class="cls-1" d="M221.08,43c-.11.19-.21.39-.33.57s-.15.07-.23.11,0-.17,0-.22c.23-.41.46-.81.7-1.21,0-.05.13-.05.2-.08s0,.16,0,.22c-.1.21-.23.41-.35.61Z"/><path class="cls-1" d="M216.69,50.72c-.08.14-.15.28-.24.41a.27.27,0,0,1-.17.07c-.05-.05-.1-.16-.08-.2.16-.3.33-.6.51-.89,0,0,.16-.06.17,0a.23.23,0,0,1,.06.2,4,4,0,0,1-.25.45Z"/><path class="cls-1" d="M217.1,47.25c-.1.16-.18.33-.28.48a.19.19,0,0,1-.18,0,.18.18,0,0,1-.06-.17c.16-.31.34-.62.53-.92,0-.05.14,0,.21-.05s.05.14,0,.18a4,4,0,0,1-.25.45Z"/><path class="cls-1" d="M214.68,49.52a4,4,0,0,1,.24-.41s.14,0,.21-.06.06.16,0,.21c-.15.28-.31.55-.48.82,0,.05-.13.06-.2.09s-.07-.18-.05-.24a2.75,2.75,0,0,1,.24-.41Z"/><path class="cls-1" d="M218.27,48a4,4,0,0,1-.24.41c0,.05-.14.06-.21.08s-.07-.16,0-.21c.16-.3.33-.6.51-.89,0,0,.14,0,.21-.06s.05.16,0,.22-.17.3-.25.45Z"/><path class="cls-1" d="M217.28,51a4,4,0,0,1-.24.41c0,.05-.14.06-.2.08s-.09-.16-.06-.2c.15-.29.31-.58.49-.86,0-.05.13,0,.2-.06a.45.45,0,0,1,0,.22,4.23,4.23,0,0,1-.23.41Z"/><path class="cls-1" d="M218.85,48.28a2.8,2.8,0,0,1-.25.41c0,.05-.15.06-.23.08s-.05-.16,0-.22c.15-.29.32-.58.49-.86,0,0,.14,0,.21-.08s.07.16,0,.22a3.37,3.37,0,0,1-.25.45Z"/><path class="cls-1" d="M215.5,50c-.08.14-.15.28-.24.41s-.13.06-.2.09-.08-.16-.06-.2c.15-.3.32-.58.49-.86,0,0,.14,0,.21-.06s.06.15,0,.21a3.3,3.3,0,0,1-.23.41Z"/><path class="cls-1" d="M213.81,50.28c-.14.24-.27.49-.43.72,0,0-.15,0-.23.08s-.08-.2-.05-.27a2.7,2.7,0,0,1,.34-.56c.06-.07.21-.08.32-.12Z"/><path class="cls-1" d="M211.31,58.73l-.31-.18.48-.84C211.88,57.77,211.9,57.81,211.31,58.73Z"/><path class="cls-1" d="M214.41,53.35c-.3-.07-.34-.2-.2-.41a4.43,4.43,0,0,1,.29-.46c0-.06.17,0,.26-.06s.08.18.05.24C214.69,52.9,214.55,53.12,214.41,53.35Z"/><path class="cls-1" d="M210.35,58.25c.14-.24.27-.49.43-.73,0-.07.16-.09.25-.13s.06.2,0,.28a2.72,2.72,0,0,1-.33.57c-.06.08-.2.09-.31.14Z"/><path class="cls-1" d="M212.63,52.31c-.3-.06-.35-.18-.2-.39a4.43,4.43,0,0,1,.29-.46c0-.06.17-.05.26-.07s.06.18,0,.25S212.76,52.08,212.63,52.31Z"/><path class="cls-1" d="M216.2,54.38c-.28-.06-.34-.17-.2-.39s.17-.32.28-.47.15-.06.23-.09.1.2.07.26C216.47,53.93,216.33,54.15,216.2,54.38Z"/><path class="cls-1" d="M201.69,74.53,202,74l.43.17-.35.62Z"/><path class="cls-1" d="M219.48,46.56a3.91,3.91,0,0,1,.26-.44s.13,0,.2-.08.07.14.05.18c-.18.35-.37.69-.57,1a.17.17,0,0,1-.18,0,.18.18,0,0,1-.06-.17,5.79,5.79,0,0,1,.31-.54Z"/><path class="cls-1" d="M210.84,54.6c.37.19.35.33-.1.83l-.28-.17Z"/><path class="cls-1" d="M216,54.7l-.48.83c-.09-.1-.24-.21-.22-.25a3,3,0,0,1,.35-.63S215.86,54.68,216,54.7Z"/><path class="cls-1" d="M211.82,52.82c.14-.09.34-.27.42-.23.29.15,0,.31-.06.47a.29.29,0,0,1-.11.19,1.24,1.24,0,0,1-.29.1,1.33,1.33,0,0,1,0-.28.77.77,0,0,1,.11-.19Z"/><path class="cls-1" d="M210.14,56.46l-.28-.19.36-.63C210.66,55.68,210.62,55.83,210.14,56.46Z"/><path class="cls-1" d="M215,56.52l-.32-.18a4.69,4.69,0,0,1,.32-.55.25.25,0,0,1,.24,0,.21.21,0,0,1,.07.2A6.26,6.26,0,0,1,215,56.52Z"/><path class="cls-1" d="M213.75,54.46l-.29-.16c.15-.25.28-.49.42-.73C214.27,53.59,214.27,53.7,213.75,54.46Z"/><path class="cls-1" d="M216.56,48.18c-.16.27-.31.54-.47.8,0,.05-.14.06-.21.08s-.07-.16,0-.21a7.66,7.66,0,0,1,.41-.68c0-.06.17-.06.26-.09Z"/><path class="cls-1" d="M215.72,48.32a4.05,4.05,0,0,1-.21.35s-.11,0-.17.07-.09-.16-.07-.21a6.1,6.1,0,0,1,.41-.7s.13,0,.2-.07.06.15,0,.21a2.89,2.89,0,0,1-.19.35Z"/><path class="cls-1" d="M217.18,49.13l.46-.35a4.77,4.77,0,0,1-.15.54,1.33,1.33,0,0,1-.2.35s-.14,0-.21.08-.06-.16,0-.21a1.78,1.78,0,0,1,.19-.36Z"/><path class="cls-1" d="M217.81,49.48a2,2,0,0,1,.19-.31.52.52,0,0,1,.2-.07c0,.07.07.16.05.21a6.38,6.38,0,0,1-.38.67c0,.05-.14.06-.22.09a.69.69,0,0,1,0-.24,2.33,2.33,0,0,1,.2-.34Z"/><path class="cls-1" d="M216.18,52.19l.47-.34c-.05.18-.09.37-.15.54a1.26,1.26,0,0,1-.18.32s-.14,0-.21.08-.07-.16-.05-.22a1.72,1.72,0,0,1,.18-.32Z"/><path class="cls-1" d="M215.63,51.82l.44-.3a4.07,4.07,0,0,1-.13.5,1,1,0,0,1-.18.32c0,.06-.14.07-.22.11a.53.53,0,0,1,0-.24,1.65,1.65,0,0,1,.18-.32Z"/><path class="cls-1" d="M214.19,51.07c-.14.12-.39.36-.42.33-.27-.22.08-.35.12-.54a.84.84,0,0,1,.19-.31s.14,0,.21-.06.05.15,0,.21a2.48,2.48,0,0,1-.17.32Z"/><path class="cls-1" d="M214.46,51.2a3.37,3.37,0,0,1,.19-.32s.14,0,.21-.06.07.16,0,.21a5,5,0,0,1-.37.63c0,.06-.15.05-.23.08a.58.58,0,0,1,0-.22,1.65,1.65,0,0,1,.18-.32Z"/><path class="cls-1" d="M214.11,57.37l.37-.64c.4.12.39.24-.08.8a1,1,0,0,1-.16-.06S214.17,57.41,214.11,57.37Z"/><path class="cls-1" d="M203,75.4l.43-.74.33.13a6.38,6.38,0,0,1-.39.64S203.21,75.41,203,75.4Z"/><path class="cls-1" d="M213.44,52.23a2,2,0,0,1-.19.31c0,.05-.14,0-.21.06s-.06-.16,0-.21a3.65,3.65,0,0,1,.32-.54c.05-.06.16-.08.24-.12a.88.88,0,0,1,0,.28.71.71,0,0,1-.13.22Z"/><path class="cls-1" d="M213.92,57.74c.37.17.35.27-.1.82l-.28-.16Z"/><path class="cls-1" d="M213.13,55.58c-.1-.18-.23-.32-.2-.37a1.5,1.5,0,0,1,.39-.54c.07-.05.29.08.17.29S213.3,55.29,213.13,55.58Z"/><path class="cls-1" d="M213.72,52.35l.42-.29a4.07,4.07,0,0,1-.13.5.56.56,0,0,1-.14.25,1,1,0,0,1-.25.13,1.34,1.34,0,0,1,0-.28,1.28,1.28,0,0,1,.15-.25Z"/><path class="cls-1" d="M212.6,56.5l-.33-.19a5.5,5.5,0,0,1,.32-.54.24.24,0,0,1,.23,0,.24.24,0,0,1,.09.22A6.26,6.26,0,0,1,212.6,56.5Z"/><path class="cls-1" d="M212,57.51l-.31-.17.37-.64C212.47,56.8,212.47,56.84,212,57.51Z"/><path class="cls-1" d="M214.88,53.11c.18-.14.41-.37.44-.34.25.2,0,.35-.1.51a2.5,2.5,0,0,1-.36.37Z"/><path class="cls-1" d="M215.52,54.1c-.08-.14-.18-.25-.16-.29a5.63,5.63,0,0,1,.38-.68s.15-.06.17,0a.24.24,0,0,1,.07.2C215.86,53.54,215.72,53.77,215.52,54.1Z"/><path class="cls-1" d="M211,54.34a3.71,3.71,0,0,1,.37-.62c.05,0,.21,0,.32,0a4.11,4.11,0,0,1-.28.6C211.38,54.38,211.21,54.34,211,54.34Z"/><path class="cls-1" d="M212.8,57.55a.6.6,0,0,1-.14.21.66.66,0,0,1-.21,0,1.06,1.06,0,0,1,.06-.37,1.78,1.78,0,0,1,.34-.33c0,.07.09.14.08.2a.89.89,0,0,1-.14.25Z"/><path class="cls-1" d="M213.41,57.91a2.06,2.06,0,0,1-.25.26s-.19-.11-.19-.12a6.44,6.44,0,0,1,.36-.63.84.84,0,0,1,.2.08C213.5,57.64,213.45,57.77,213.41,57.91Z"/><path class="cls-1" d="M211,56.47c-.05.08-.07.17-.14.22a.25.25,0,0,1-.2,0,.21.21,0,0,1-.06-.2,1.11,1.11,0,0,1,.22-.38c.05-.06.16-.07.25-.11a1.32,1.32,0,0,1,0,.28.89.89,0,0,1-.09.16Z"/><path class="cls-1" d="M204.84,73.75l1,.57,0,.08c-.07,0-.15,0-.2,0-.25-.11-.5-.21-.73-.34-.07,0-.09-.18-.14-.28Z"/><path class="cls-1" d="M214.56,55.83c0,.06-.06.15-.12.19a.78.78,0,0,1-.23.07.45.45,0,0,1,0-.22,1,1,0,0,1,.2-.35.73.73,0,0,1,.25-.13c0,.1,0,.19,0,.28A.51.51,0,0,1,214.56,55.83Z"/><path class="cls-1" d="M202.48,75c.22-.6.28-.65.59-.49C202.92,75.06,202.77,75.19,202.48,75Z"/><path class="cls-1" d="M214,56.86a.84.84,0,0,1-.16.24.21.21,0,0,1-.19,0,.19.19,0,0,1-.08-.14,4.07,4.07,0,0,1,.31-.53s.14,0,.18,0a.19.19,0,0,1,.07.17A.79.79,0,0,1,214,56.86Z"/><path class="cls-1" d="M228.12,26.13c.17.19-.05.86-.37,1.17A1.67,1.67,0,0,1,228.12,26.13Z"/><path class="cls-1" d="M215.14,54.8c0,.06-.06.14-.11.18a1.23,1.23,0,0,1-.23.11c0-.09-.07-.18,0-.25a1.27,1.27,0,0,1,.23-.41.86.86,0,0,1,.25-.14,1.37,1.37,0,0,1,0,.28.8.8,0,0,1-.11.23Z"/><path class="cls-1" d="M212.46,53.19c.13-.09.33-.29.38-.26.26.19-.05.32-.09.48a.32.32,0,0,1-.09.16,2.8,2.8,0,0,1-.25.14c0-.1,0-.21,0-.31s.05-.1.08-.16Z"/><path class="cls-1" d="M230.89,27.65l-.8,1C229.94,28.39,230.49,27.66,230.89,27.65Z"/><path class="cls-1" d="M214.56,54.44a.67.67,0,0,1-.13.22.61.61,0,0,1-.2.09c0-.08-.08-.17,0-.23a2,2,0,0,1,.25-.45c0-.06.14-.08.22-.12a.86.86,0,0,1,0,.27A.68.68,0,0,1,214.56,54.44Z"/><path class="cls-1" d="M211.1,55.6c.1-.17.19-.34.3-.5s.16-.05.23-.08.08.16.05.22a1.25,1.25,0,0,1-.24.4c-.05.07-.18.07-.28.1Z"/><path class="cls-1" d="M213.09,53.56a.67.67,0,0,1,.13-.22c.06-.05.16-.05.24-.08a.58.58,0,0,1,0,.22,1.76,1.76,0,0,1-.26.44c-.05.07-.16.08-.25.11a1,1,0,0,1,0-.25.89.89,0,0,1,.13-.23Z"/><path class="cls-1" d="M213.39,56.52a1.09,1.09,0,0,1-.19.27s-.13,0-.19,0a2.35,2.35,0,0,1,.14-.45c0-.1.17-.16.25-.25s.14.11.13.15A1.3,1.3,0,0,1,213.39,56.52Z"/><path class="cls-1" d="M212.14,54.46c0,.07-.06.16-.11.19a.64.64,0,0,1-.24,0,2,2,0,0,1,.12-.44c.06-.1.2-.16.3-.25a.74.74,0,0,1,0,.24.64.64,0,0,1-.12.23Z"/><path class="cls-1" d="M201.85,72l-.27.47-.27-.13C201.46,71.86,201.53,71.81,201.85,72Z"/><path class="cls-1" d="M203,73.19,202.6,73l.23-.41.4.23Z"/><path class="cls-1" d="M212.72,54.8a.74.74,0,0,1-.13.21.2.2,0,0,1-.18,0,.18.18,0,0,1-.07-.17.36.36,0,0,1,.11-.22c.12-.1.09-.43.36-.27.06,0,0,.28,0,.43Z"/><path class="cls-1" d="M212.13,55.82A.54.54,0,0,1,212,56a.26.26,0,0,1-.2.06.21.21,0,0,1-.06-.2,1.22,1.22,0,0,1,.22-.38c.05-.06.16-.07.25-.1a1,1,0,0,1,0,.25.77.77,0,0,1-.11.19Z"/><path class="cls-1" d="M211.54,56.83c0,.07-.07.17-.13.21s-.14,0-.21,0a1.57,1.57,0,0,1,.1-.44c.06-.11.21-.17.31-.26,0,.07.08.15.07.21A.89.89,0,0,1,211.54,56.83Z"/><path class="cls-1" d="M214,55.5a.62.62,0,0,1-.12.19.59.59,0,0,1-.2.07c0-.07-.08-.16-.06-.21a2.06,2.06,0,0,1,.23-.41c.05,0,.15,0,.23-.07a.56.56,0,0,1,0,.21.94.94,0,0,1-.12.22Z"/><path class="cls-1" d="M201.36,74.32c-.27-.06-.32-.17-.19-.39s.23-.35.48-.11Z"/><path class="cls-1" d="M201,73.45l-.31.55c-.1-.09-.25-.17-.24-.24a.53.53,0,0,1,.19-.34C200.73,73.38,200.87,73.43,201,73.45Z"/><path class="cls-1" d="M202.09,72.21c.31.08.47.15.3.37s-.21.11-.33.17Z"/><path class="cls-1" d="M203.36,73.39l.2-.4c.11.09.22.14.27.23s-.06.19-.11.2A1,1,0,0,1,203.36,73.39Z"/><path class="cls-1" d="M228.49,28.11a1.6,1.6,0,0,1,.3.33s-.08.18-.13.18-.23,0-.24-.1S228.45,28.31,228.49,28.11Z"/><text class="cls-3" transform="matrix(0.83, -0.55, 0.55, 0.83, 36.42, 82.21)">A</text><text class="cls-3" transform="translate(65.33 63.31) rotate(-18.74)">L</text><text class="cls-3" transform="translate(88.54 54.87) rotate(-5.13)">E</text><text class="cls-3" transform="translate(117.23 51.81) rotate(9.77)">X</text><text class="cls-3" transform="translate(147.91 57.76) rotate(21.34)">I</text><text class="cls-3" transform="matrix(0.83, 0.56, -0.56, 0.83, 161.57, 61.63)">A</text></g></g></svg>