<svg xmlns="http://www.w3.org/2000/svg" viewBox="0 0 237.31 301.47"><defs><style>.cls-1,.cls-2{fill:#fff;stroke:#4ec2f0;}.cls-1,.cls-2,.cls-3{stroke-miterlimit:10;}.cls-2{font-size:64.37px;}.cls-2,.cls-3{font-family:Calibri;}.cls-3{font-size:21px;fill:#4ec2f0;stroke:#fffdf1;}</style></defs><g id="Calque_2" data-name="Calque 2"><g id="LOGO"><path class="cls-1" d="M38.28,52.48a.07.07,0,0,1-.06-.07,1.93,1.93,0,0,1,0-.24c0-.25,0-.5,0-.75s0-.55-.05-.82-.08-.67-.14-1A12.1,12.1,0,0,0,37.66,48a15.86,15.86,0,0,0-1.16-2.95,17.63,17.63,0,0,0-2-3.11c-.41-.51-.84-1-1.3-1.47a19.36,19.36,0,0,0-4.52-3.42,17.54,17.54,0,0,0-3.89-1.58,13.66,13.66,0,0,0-1.54-.34l-.75-.12-.42,0-.6-.06H19.74l-.59,0-.37,0a14.5,14.5,0,0,0-2.75.59,14.27,14.27,0,0,0-3.29,1.53,14.55,14.55,0,0,0-2.19,1.72,13.43,13.43,0,0,0-1.71,2,9.19,9.19,0,0,0-1.38,3A7.71,7.71,0,0,0,7.28,45a9.75,9.75,0,0,0,0,1.08s0,.06,0,.08a5.63,5.63,0,0,0,0,1.23,8.36,8.36,0,0,0,.81,2.76,10.35,10.35,0,0,0,1.79,2.61,9.88,9.88,0,0,0,2.9,2.14,9.43,9.43,0,0,0,2.48.84c.31.06.62.1.93.14l1.51.2a8,8,0,0,1,1.27.28A3.23,3.23,0,0,1,21,58a4.69,4.69,0,0,1,.42,1.28,7.76,7.76,0,0,1,.13,1.17,6.69,6.69,0,0,0,.37,1.83,4.47,4.47,0,0,0,1.4,2,6.41,6.41,0,0,0,2.17,1.16,5.37,5.37,0,0,0,1.13.21l.81,0c.09,0,.19,0,.29,0a7.75,7.75,0,0,0,3-.68,8.64,8.64,0,0,0,1-.57,14.29,14.29,0,0,0,2-1.57,15.81,15.81,0,0,0,3.07-4.06,13.1,13.1,0,0,0,1.16-3.15c.11-.51.2-1,.26-1.53,0-.28.05-.57.06-.86l0-.36a.1.1,0,0,1,0-.07ZM25.42,37.07a3.11,3.11,0,1,1-3.11,3.1A3.11,3.11,0,0,1,25.42,37.07Zm-7.81,0a3.11,3.11,0,1,1-3.11,3.09A3.13,3.13,0,0,1,17.61,37.07Zm10.88,8.77a3.11,3.11,0,1,1,3.11,3.1A3.11,3.11,0,0,1,28.49,45.84ZM11.43,48.42a3.08,3.08,0,0,1,0-6.16,3.08,3.08,0,1,1,0,6.16ZM26.36,61.51c-.11,0-.23,0-.33,0a2.83,2.83,0,0,1-2.29-2,1,1,0,0,1,0-.46,2.78,2.78,0,0,1,.84-1.51,2.49,2.49,0,0,1,2.28-.67A2.75,2.75,0,0,1,29,59a.71.71,0,0,1,0,.29,3,3,0,0,1-.29.81A2.65,2.65,0,0,1,26.36,61.51Z"/><path class="cls-1" d="M.5,45.8l0,.08a1.39,1.39,0,0,0,.14.53,3.49,3.49,0,0,0,.59.93,3.82,3.82,0,0,0,.9.75,5.62,5.62,0,0,1,1,.71l.51.43.16.12,1.71-.84a4.59,4.59,0,0,0,0-.75,3.32,3.32,0,0,0-.18-.83,2.61,2.61,0,0,0-.69-1.09,1.91,1.91,0,0,0-.93-.49,1.73,1.73,0,0,0-.38-.05l-.78,0a4.1,4.1,0,0,1-.86-.06,1,1,0,0,1-.45-.2.93.93,0,0,1-.29-.54l0-.17-.05,0a1.67,1.67,0,0,0-.25.52,1.6,1.6,0,0,0,0,.21l0,.11Z"/><path class="cls-1" d="M7.6,51.59c-.13,0-2.33,1.13-2.47,1.21a.44.44,0,0,0,.06.16L6,54.47q1.1,2,2.23,4t2.26,3.78c.55.88,1.11,1.76,1.72,2.6.26.36.53.72.82,1.06a5.66,5.66,0,0,0,.6.6l.29.2.15,0c.17,0,.26,0,.27-.23a2.17,2.17,0,0,0,0-.36A6,6,0,0,0,14,65c-.28-.81-.61-1.59-.95-2.37-.46-1.06-1-2.1-1.46-3.14s-1-2.11-1.56-3.16L7.83,52l-.17-.31Z"/><path class="cls-1" d="M175.12,9.15a1.11,1.11,0,0,0,0-.17l.09-.69.09-.71c0-.11,0-.22.05-.33s0-.11,0-.16c0-.34,0-.67,0-1,0-.16,0-.32,0-.48a.05.05,0,0,1,0-.06c.54-.3,1.07-.6,1.63-.87a8.68,8.68,0,0,1,1.47-.55l.2-.06a0,0,0,0,1,.06,0l1.12.82c.25.19.5.4.73.6l.55.52.2.21s0,0,0,0c0,.44,0,.88,0,1.32,0,.28,0,.55-.06.82s-.13.79-.21,1.19c0,0,0,0,0,0a17.8,17.8,0,0,1-1.64.94,8.93,8.93,0,0,1-1,.39l-.57.2a.1.1,0,0,1-.09,0l-2.18-1.56c-.19-.14-.38-.28-.58-.41Z"/><path class="cls-1" d="M177.88,11.84c0,.22,0,.38,0,.55a3.41,3.41,0,0,1-.06.43c-.06.33-.13.67-.19,1,0,.14-.05.28-.08.42a0,0,0,0,1,0,0,3.91,3.91,0,0,1-.91.41,2.75,2.75,0,0,1-.57.12,8.26,8.26,0,0,1-1,.08l-.68,0a.12.12,0,0,1-.08,0l-1-.5a5.27,5.27,0,0,1-.62-.43c-.3-.23-.58-.49-.86-.74l-.29-.27a.13.13,0,0,1,0-.1c0-.16,0-.32,0-.49s0-.28,0-.42a4.24,4.24,0,0,1,.22-1.41c.06-.16.12-.32.17-.49s0,0,0,0l1.42-.36L175,9.22a.1.1,0,0,1,.1,0l2.71,1.94a.1.1,0,0,1,.06.12C177.89,11.5,177.88,11.7,177.88,11.84Z"/><path class="cls-1" d="M175.41,5.49l-.06,0c-.31-.16-.61-.31-.92-.45a7.38,7.38,0,0,0-1.31-.41l-.59-.13,0,0a0,0,0,0,1,0,0c0-.27,0-.55,0-.83a4.33,4.33,0,0,1,.23-1.18c0-.1.06-.2.1-.31s0,0,0-.05c.41-.28.82-.55,1.25-.79a6.49,6.49,0,0,1,1-.45l.73-.24h.06c.46.13.92.27,1.38.44a10.74,10.74,0,0,1,1.2.54l.24.13a0,0,0,0,1,0,.05l0,1.4c0,.28,0,.55,0,.83V4h0c-.29.08-.57.17-.85.27a7.46,7.46,0,0,0-1,.46l-1.22.65Z"/><path class="cls-1" d="M182.49,11.74l0,0-.92-1.55-.25-.47a.09.09,0,0,1,0-.07l.12-.62a7.5,7.5,0,0,0,.11-.81,11,11,0,0,0,0-1.28c0-.21,0-.43,0-.64,0,0,0,0,0-.06l1.43-1a.07.07,0,0,1,.06,0,1.61,1.61,0,0,1,.42.25,3.83,3.83,0,0,1,.28.29s0,0,0,0a7.54,7.54,0,0,1,.3,1.13c0,.24.08.47.11.71a8.69,8.69,0,0,1,0,1c0,.27,0,.53-.06.79a7.81,7.81,0,0,1-.22,1.07c-.05.19-.12.38-.18.57l0,0-.42.31a2,2,0,0,1-.64.27Z"/><path class="cls-1" d="M170.34,7.14c.08.26.16.5.24.75s.16.46.25.68a4.68,4.68,0,0,0,.53.88l.4.5a.08.08,0,0,1,0,.09,6.81,6.81,0,0,0-.26.76,4.68,4.68,0,0,0-.14,1.17l0,.71a1,1,0,0,1,0,.17s0,0,0,.07l-.26.08a2,2,0,0,1-.74,0L170,13a.09.09,0,0,1-.06,0,7.9,7.9,0,0,1-.58-1,7.44,7.44,0,0,1-.57-1.44,6.42,6.42,0,0,1-.2-1,8.1,8.1,0,0,1,0-2.21s0-.05.05-.06a6.17,6.17,0,0,1,.65-.17l.3,0a3.91,3.91,0,0,1,.68,0Z"/><path class="cls-1" d="M172.76,2.09l0,.08a7.66,7.66,0,0,0-.23.82,6,6,0,0,0-.07.61c0,.28,0,.57,0,.86a.09.09,0,0,1,0,.06l-.65.58a5.21,5.21,0,0,0-1,1.29c-.12.21-.23.42-.34.64l0,0-.21,0a4.07,4.07,0,0,0-.7,0,2.19,2.19,0,0,0-.5.09l-.35.11h0s0,0,0,0A7.71,7.71,0,0,1,169.84,4a7.25,7.25,0,0,1,1.32-1.5,2.75,2.75,0,0,1,.26-.22.19.19,0,0,1,.1,0l.34-.09a2.54,2.54,0,0,1,.67-.06Z"/><path class="cls-1" d="M180.07,14.63a1.3,1.3,0,0,1-.16.67l-.07.11a.14.14,0,0,1-.09.08c-.21.1-.43.2-.65.28a8,8,0,0,1-1.27.35c-.25.05-.49.08-.74.11a9.42,9.42,0,0,1-1.19,0,7.85,7.85,0,0,1-1.72-.3h-.07a2.72,2.72,0,0,1,.2-.93h0l1,0,.84-.09a3.3,3.3,0,0,0,1-.36l.29-.15.06,0,.81.05c.35,0,.7,0,1,.11l.62.12Z"/><path class="cls-1" d="M179.94,15.39l0-.06a.93.93,0,0,0,.15-.42,1.94,1.94,0,0,0,0-.24.12.12,0,0,1,.05-.11l.58-.45a5.53,5.53,0,0,0,.78-.75,4.17,4.17,0,0,0,.54-.78l.38-.73s0,0,.07,0a3.24,3.24,0,0,0,.53-.16,2.67,2.67,0,0,0,.48-.29l.14-.1a8.11,8.11,0,0,1-.89,1.67,8.16,8.16,0,0,1-1.28,1.41A7.4,7.4,0,0,1,179.94,15.39Z"/><path class="cls-1" d="M181.17,2.18l0,0a7.68,7.68,0,0,0-.79-.32,3.75,3.75,0,0,0-.82-.18c-.22,0-.43,0-.65,0l-.1,0a10.12,10.12,0,0,0-.93-.47,9.41,9.41,0,0,0-1.05-.39l-.67-.21h0a7.38,7.38,0,0,1,2.69.37,7.21,7.21,0,0,1,1.25.53A6.94,6.94,0,0,1,181.17,2.18Z"/><path class="cls-1" d="M181.79,2.7a7.78,7.78,0,0,1,1.89,2.84l0,0a1.46,1.46,0,0,0-.5-.35A.19.19,0,0,1,183,5a8.11,8.11,0,0,0-.28-.78,5.57,5.57,0,0,0-.5-.85c-.14-.22-.3-.42-.45-.63l0,0Z"/><path class="cls-1" d="M213.61,49.8c-.37.65-.7,1.23-1,1.81-.85,1.44-1.72,2.87-2.56,4.31a.62.62,0,0,1-.55.33,5.44,5.44,0,0,0-4.16,8.55c.1.15.2.28.08.49-1.17,2-2.32,3.94-3.48,5.91l-.1.11-.34-.17-4-2.31c-.42-.24-.42-.23-.67.2-.35.61-.7,1.24-1.07,1.85-.15.24-.1.38.15.52l12.32,7.12c.23.13.37.11.5-.13q.56-1,1.14-2c.16-.26.1-.38-.15-.52l-4-2.29-.37-.21.9-1.55,2.53-4.46a.47.47,0,0,1,.51-.28,5.46,5.46,0,0,0,5.31-7.94.54.54,0,0,1,0-.43c1.13-2,2.27-4.08,3.41-6.12,0,0,.07-.09.17-.22.67.66,1.35,1.28,2,2a10.34,10.34,0,0,1,2,3.12,6,6,0,0,1-.64,6,15.49,15.49,0,0,1-3.32,3.58A4.66,4.66,0,0,0,216.33,71a42.65,42.65,0,0,1-.32,7.5,9.64,9.64,0,0,1-4.83,7.25,9.87,9.87,0,0,1-5.75,1.06A18.54,18.54,0,0,1,199,84.89a24.42,24.42,0,0,1-7.44-5.28A12.75,12.75,0,0,1,189,75.75a8.88,8.88,0,0,1,1.08-8.9,14.48,14.48,0,0,1,4.5-3.9c1.28-.81,2.61-1.53,3.9-2.31a4.84,4.84,0,0,0,2.44-3.55,14,14,0,0,1,2-5.64,5.42,5.42,0,0,1,3.33-2.38,10.8,10.8,0,0,1,5.67.19C212.48,49.41,213,49.61,213.61,49.8Z"/><path class="cls-1" d="M234.71,16.92c.17.31.26.67.47.79s.56,0,1-.05c0,.15,0,.33,0,.52a.54.54,0,0,0,.34.51c.07,0,.1.19.12.29a3.68,3.68,0,0,0,.09.76.64.64,0,0,1-.05.64c-1.4,2.41-2.79,4.83-4.18,7.24a.63.63,0,0,1-.18.24,11.59,11.59,0,0,1-1.45.87c.2-.27.43-.52.6-.8Q232.71,26,233.88,24c.45-.75.88-1.5,1.31-2.27a.86.86,0,0,0-1.3-1.12,1.55,1.55,0,0,0-.28.39c-1,1.73-2,3.47-3,5.2-.36.61-.76,1.2-1.15,1.82l-.41-.24c.37-.69.7-1.37,1.07-2,1-1.72,2-3.43,3-5.14a1,1,0,0,0,.09-.95.85.85,0,0,0-1.5,0c-.52.85-1,1.72-1.5,2.58s-.91,1.52-1.32,2.3-.67,1.42-1,2.13a.66.66,0,0,1-.14.2,4.58,4.58,0,0,1,.37-2.26c1.36-2.26,2.66-4.56,4-6.86a.66.66,0,0,1,.58-.41,2.11,2.11,0,0,0,.66-.29c.07,0,.19-.12.21-.1.42.37.81,0,1.21,0Z"/><path class="cls-1" d="M210.34,56.8c-.26.45-.49.87-.75,1.29-.05.08-.21.11-.32.13a3.5,3.5,0,0,0-2.78,4.7.72.72,0,0,1-.05.54c-.21.42-.46.83-.71,1.25a5,5,0,0,1,.08-6.25C207,57,209.37,56.13,210.34,56.8Z"/><path class="cls-1" d="M209.16,66.71c.29-.5.55-1,.83-1.42,0-.09.2-.13.31-.15A3.5,3.5,0,0,0,213,60.4a.75.75,0,0,1,0-.53c.18-.39.41-.75.66-1.18a1.94,1.94,0,0,1,.41.39,5.1,5.1,0,0,1-4.71,7.69Z"/><path class="cls-1" d="M199,72.77l-2.35-1.36a3.31,3.31,0,0,0,1.12-2l2.36,1.36Z"/><path class="cls-1" d="M208.91,75.88a3.09,3.09,0,0,0-1.12,2l-2.36-1.37,1.13-2Z"/><path class="cls-1" d="M212.68,60.61c.8,1.61-.6,4.07-2.37,4.11Z"/><path class="cls-1" d="M209.24,58.63l-2.37,4.1A3,3,0,0,1,209.24,58.63Z"/><path class="cls-1" d="M203.8,72.46l-.39-.22,3.42-5.92.39.22Z"/><path class="cls-1" d="M208.39,64.48l-.35-.2c.06-.12.11-.23.17-.33.92-1.59,1.84-3.19,2.77-4.77.08-.14.12-.37.37-.21s.05.28,0,.4Z"/><path class="cls-1" d="M205.71,65.4c.26.13.28.25.17.44q-1.65,2.79-3.27,5.6c-.11.19-.23.31-.43.08Z"/><path class="cls-1" d="M208.58,67.07C208,68,207.46,69,206.92,70s-1.13,2-1.68,3c-.11.2-.22.34-.45.09a1.74,1.74,0,0,1,.11-.25l3.18-5.59C208.19,67,208.31,66.85,208.58,67.07Z"/><path class="cls-1" d="M199.76,72.33c.08-.25.15-.37.39-.25l5.5,2.57c.09,0,.24.17.23.23,0,.24-.18.22-.37.13l-3.94-1.84Z"/><path class="cls-1" d="M206.37,65.84c0,.19.11.35.06.43-1.1,1.91-2.22,3.82-3.34,5.72,0,0,0,0-.05,0s-.32-.09-.17-.33L206.2,66A1.47,1.47,0,0,1,206.37,65.84Z"/><path class="cls-1" d="M204.16,72.65a1.34,1.34,0,0,1,.12-.24c1-1.81,2.07-3.61,3.11-5.42.09-.17.18-.42.48-.12l-1,1.74-2.25,4C204.5,72.77,204.4,72.92,204.16,72.65Z"/><path class="cls-1" d="M211.92,59.35c0,.13.06.28,0,.37q-1.37,2.41-2.76,4.82c0,.09-.21.12-.32.17l-.08-.1,3-5.24Z"/><path class="cls-1" d="M207.61,64c0-.12-.08-.28,0-.36.92-1.61,1.86-3.21,2.8-4.81.06-.09.22-.12.33-.18l.07.1-3,5.24Z"/><path class="cls-1" d="M209.48,64.74l2.8-4.84h.11c0,.14.05.31,0,.42-.8,1.42-1.6,2.84-2.42,4.26-.07.12-.24.19-.36.28Z"/><path class="cls-1" d="M210.05,58.62l-2.79,4.85c-.25-.15-.23-.3-.11-.5q1.23-2.1,2.47-4.19c.07-.12.23-.19.35-.28Z"/><path class="cls-1" d="M232.19,21.55l-.68,1.18c-.27-.15-.54-.29-.79-.46a.29.29,0,0,1-.06-.27c.17-.33.37-.65.57-1Z"/><path class="cls-1" d="M233.3,22.18l.94.55-.69,1.18c-.26-.15-.53-.29-.78-.46a.24.24,0,0,1-.06-.23C232.89,22.87,233.09,22.54,233.3,22.18Z"/><path class="cls-1" d="M233.12,24.71l-.67,1.16-.94-.54.67-1.16Z"/><path class="cls-1" d="M231.05,23.52l-.66,1.16-.94-.54.67-1.16Z"/><path class="cls-1" d="M197.16,69.08a.69.69,0,0,1,.16,1c-.53,1-.74,1.18-1.31,1Z"/><path class="cls-1" d="M208.42,78.21a.71.71,0,0,1-.17-1c.52-1,.75-1.17,1.31-1Z"/><path class="cls-1" d="M205.08,76.27l-1-.56.43-.75,1,.47Z"/><path class="cls-1" d="M229,24.93l.94.55c-.13.31-.25.65-.63.64a.75.75,0,0,1-.53-.29C228.53,25.51,228.78,25.24,229,24.93Z"/><path class="cls-1" d="M231,26.12l.94.54c-.13.31-.23.64-.6.65a.7.7,0,0,1-.54-.27C230.59,26.71,230.85,26.43,231,26.12Z"/><path class="cls-1" d="M233.79,21.4c.13-.34.26-.67.66-.66a.74.74,0,0,1,.5.29c.21.34,0,.61-.24.9Z"/><path class="cls-1" d="M232.65,20.74l-.92-.53c.11-.31.23-.63.59-.66a.75.75,0,0,1,.55.27C233.11,20.15,232.87,20.43,232.65,20.74Z"/><path class="cls-1" d="M201.61,71.66l-.32.56-1.16-.54.38-.65Z"/><path class="cls-1" d="M207.81,64.61l.4.23c-.24.42-.48.84-.74,1.25,0,0-.2,0-.27,0a.29.29,0,0,1-.08-.26C207.33,65.42,207.57,65,207.81,64.61Z"/><path class="cls-1" d="M227.34,32.73c-.16.28-.32.56-.49.83,0,0-.12.07-.19.1s-.06-.16,0-.21c.32-.58.65-1.15,1-1.72,0-.05.13-.06.2-.08s0,.16,0,.22l-.49.86Z"/><path class="cls-1" d="M226,35.08c-.16.27-.31.55-.48.82,0,.06-.12.08-.19.12s-.06-.19,0-.25c.32-.56.64-1.13,1-1.68,0-.06.13-.07.2-.1s0,.16,0,.22c-.15.29-.32.58-.49.86Z"/><path class="cls-1" d="M224.18,34c.16-.28.32-.56.49-.83,0,0,.13-.07.19-.1s.06.17,0,.22c-.33.57-.66,1.14-1,1.71,0,0-.13,0-.2.08s0-.17,0-.23c.16-.29.33-.57.5-.86Z"/><path class="cls-1" d="M225.76,31.8c-.15.26-.29.52-.45.76-.05.08-.17.12-.26.18a.89.89,0,0,1,0-.29l.93-1.58c0-.07.14-.1.22-.14a1.29,1.29,0,0,1,0,.28c-.14.27-.31.53-.46.79Z"/><path class="cls-1" d="M227.86,33c-.15.28-.31.55-.48.82,0,.06-.12.08-.19.11s-.05-.16,0-.22c.31-.57.64-1.15,1-1.71,0-.05.14-.06.2-.09s0,.17,0,.23l-.49.86Z"/><path class="cls-1" d="M224.71,34.31c.16-.28.31-.56.48-.83,0-.06.15-.07.23-.1s0,.17,0,.22l-1,1.66c0,.06-.15.08-.23.12s0-.18,0-.25c.14-.28.31-.55.47-.83Z"/><path class="cls-1" d="M229,30.48c.16-.29.33-.58.5-.86,0-.06.13-.07.2-.11s0,.17,0,.22q-.48.9-1,1.77c0,.06-.13.08-.19.12s-.06-.18,0-.24c.15-.31.33-.6.51-.9Z"/><path class="cls-1" d="M227.09,35.7c-.16.27-.3.54-.47.79,0,.07-.15.09-.24.14s0-.19,0-.25c.3-.56.62-1.11.94-1.65,0-.07.14-.09.22-.12a.69.69,0,0,1,0,.25c-.15.28-.32.55-.47.82Z"/><path class="cls-1" d="M220.21,43.27l.8-1.36a.24.24,0,0,1,.2,0,.21.21,0,0,1,.06.21c-.22.42-.46.83-.72,1.24,0,.06-.19,0-.29.07Z"/><path class="cls-1" d="M208.38,66.65c.31-.54.55-1,.82-1.4.05-.07.21-.08.33-.12l.08.1c-.26.45-.51.91-.79,1.34C208.78,66.64,208.6,66.62,208.38,66.65Z"/><path class="cls-1" d="M206.08,65.25c0-.11-.11-.25-.07-.33.24-.45.5-.88.76-1.32l.13,0c0,.13.07.29,0,.39-.21.42-.46.83-.7,1.24Z"/><path class="cls-1" d="M199.38,73c.08-.29.2-.37.46-.23s.57.27.88.42l-.25.44Z"/><path class="cls-1" d="M221.17,37.84c.12-.22.24-.44.37-.64s.17-.08.25-.12a.54.54,0,0,1,0,.25c-.25.45-.51.89-.78,1.33,0,.06-.15.07-.23.11s-.06-.2,0-.27c.11-.24.25-.45.38-.68Z"/><path class="cls-1" d="M230.27,29.8A5.21,5.21,0,0,1,229,31.89,6.1,6.1,0,0,1,230.27,29.8Z"/><path class="cls-1" d="M225,31.37c.15-.26.3-.53.46-.79.05-.07.16-.1.24-.15a.55.55,0,0,1,0,.26c-.31.54-.63,1.07-.95,1.6,0,.07-.14.1-.21.15s0-.21,0-.28c.14-.27.3-.53.45-.8Z"/><path class="cls-1" d="M224.73,39.93c-.13.21-.24.43-.38.63s-.16.08-.25.12,0-.19,0-.25c.24-.46.49-.9.76-1.34,0-.06.14-.08.21-.12s.05.2,0,.27c-.11.23-.25.45-.38.67Z"/><path class="cls-1" d="M221.7,40.72c.11-.19.21-.39.33-.57s.15-.08.23-.11.07.18,0,.24c-.21.4-.44.79-.68,1.17,0,.06-.15.06-.23.08s-.06-.18,0-.24.22-.39.33-.58Z"/><path class="cls-1" d="M223.86,33.8c-.16.28-.32.57-.5.85,0,.06-.14.08-.22.11s0-.19,0-.25c.32-.55.65-1.09,1-1.63,0-.06.15-.08.22-.12a.69.69,0,0,1,0,.25l-.46.8Z"/><path class="cls-1" d="M207.37,64.19c0,.1.12.24.09.31-.22.42-.47.83-.71,1.24h-.14c0-.12-.09-.27,0-.35.2-.41.44-.79.67-1.18Z"/><path class="cls-1" d="M207.77,66.31c.22-.39.44-.79.68-1.17.06-.08.22-.09.33-.14l.07.12c-.23.4-.45.81-.7,1.2-.05.07-.21.08-.32.12Z"/><path class="cls-1" d="M222.51,38.6c-.13.22-.24.45-.39.66s-.16.09-.24.13,0-.18,0-.25c.24-.44.49-.87.75-1.3,0-.06.16-.08.24-.13a.69.69,0,0,1,0,.29c-.1.2-.23.4-.35.6Z"/><path class="cls-1" d="M223,39a6.34,6.34,0,0,1-.39.66c0,.05-.13.05-.2.07s-.07-.16,0-.21c.26-.47.53-.94.81-1.39,0-.06.13-.07.19-.1s.08.18.05.24c-.12.25-.27.48-.41.73Z"/><path class="cls-1" d="M223.91,39.44c.13-.22.25-.45.39-.67,0-.06.15-.07.22-.11s0,.17,0,.22q-.37.69-.78,1.38c0,.05-.13.07-.2.1s-.05-.18,0-.24c.11-.23.25-.45.38-.68Z"/><path class="cls-1" d="M223.6,39.28c-.13.22-.25.45-.4.66s-.13.07-.19.1-.06-.16,0-.22c.26-.47.53-.94.81-1.4,0-.05.13-.05.2-.07s0,.16,0,.22c-.12.24-.27.47-.4.71Z"/><path class="cls-1" d="M227.26,28l-.54.93c-.2.35-.4.7-.61,1,0,.06-.13.07-.2.11s-.06-.13,0-.16L227.06,28S227.12,28,227.26,28Z"/><path class="cls-1" d="M221.82,44.61c0,.1.14.23.1.3-.21.4-.45.8-.68,1.2h-.12c0-.11-.11-.26-.07-.34.19-.39.43-.76.64-1.14Z"/><path class="cls-1" d="M219.91,44.46c-.11.18-.2.37-.32.53s-.16.07-.24.06a.28.28,0,0,1,0-.21q.3-.54.63-1.08s.15,0,.23-.06.06.18,0,.25a5.14,5.14,0,0,1-.29.51Z"/><path class="cls-1" d="M222.57,36c-.13.22-.25.45-.39.66,0,0-.14,0-.21.07s-.06-.16,0-.21c.25-.46.52-.91.8-1.36,0-.06.15-.06.23-.08s0,.16,0,.22c-.13.24-.27.47-.4.7Z"/><path class="cls-1" d="M218.57,42.8c-.24.41-.47.82-.71,1.22a.21.21,0,0,1-.21,0,.32.32,0,0,1-.08-.23c.2-.36.41-.72.65-1.07,0-.06.2-.05.3-.07Z"/><path class="cls-1" d="M225.85,37.89c-.13.22-.25.45-.39.66s-.13.07-.19.11-.08-.19-.05-.25c.25-.46.51-.92.78-1.37,0,0,.14,0,.21-.08s0,.16,0,.22c-.12.24-.27.47-.4.7Z"/><path class="cls-1" d="M223.45,36.46c.13-.22.25-.45.39-.66,0,0,.13-.06.2-.09s.05.16,0,.21c-.25.46-.51.91-.79,1.36,0,.06-.15.07-.22.09s0-.16,0-.22l.4-.69Z"/><path class="cls-1" d="M224.17,38.05c0-.09-.06-.2,0-.27.25-.45.5-.9.77-1.34,0,0,.13-.07.19-.11s.06.19,0,.25c-.27.49-.55,1-.83,1.46Z"/><path class="cls-1" d="M224.21,37c-.12.22-.24.43-.37.64,0,.06-.14.08-.22.12s-.05-.19,0-.25c.24-.45.5-.89.77-1.33,0-.06.14-.07.22-.1s0,.19,0,.25c-.12.23-.25.45-.38.67Z"/><path class="cls-1" d="M230.09,20.48l-.36-.2.6-1.05.37.19Z"/><path class="cls-1" d="M227.81,24.43l-.36-.21.6-1,.36.21Z"/><path class="cls-1" d="M220,39.76a6.59,6.59,0,0,1,.34-.57c0-.06.17-.07.25-.1s.05.18,0,.25c-.21.37-.43.74-.66,1.1,0,.07-.16.08-.24.12s-.06-.19,0-.27a5.79,5.79,0,0,1,.31-.54Z"/><path class="cls-1" d="M228.94,22.47l-.35-.22.6-1,.36.21Z"/><path class="cls-1" d="M235.27,23.49l.61-1,.37.19-.61,1.06Z"/><path class="cls-1" d="M234.51,25.66l-.37-.21.6-1,.37.22Z"/><path class="cls-1" d="M232.94,27.51l.66-1.13.4.21c-.19.32-.35.65-.56.94C233.39,27.59,233.17,27.52,232.94,27.51Z"/><path class="cls-1" d="M221.91,44.23c.25-.44.5-.87.76-1.3,0-.06.15-.07.22-.11s.08.19.05.25c-.21.4-.42.8-.66,1.19,0,.07-.2.07-.3.11Z"/><path class="cls-1" d="M228.23,28.55a1.53,1.53,0,0,1-.06.29c-.34.59-.67,1.17-1,1.75,0,.06-.12.09-.19.13s-.05-.17,0-.22c.35-.61.7-1.21,1.06-1.81C228,28.64,228.1,28.62,228.23,28.55Z"/><path class="cls-1" d="M229.31,29.22l-1.23,2.12H228c0-.09,0-.19,0-.26C228.35,30.27,229,29.26,229.31,29.22Z"/><path class="cls-1" d="M216.91,45.68c-.28,0-.36-.15-.21-.38s.3-.53.47-.78c.05-.08.18-.1.28-.15,0,.1.07.23,0,.3C217.3,45,217.1,45.35,216.91,45.68Z"/><path class="cls-1" d="M228.72,28.92a1,1,0,0,1-.08.29c-.3.54-.61,1.09-.93,1.62-.05.08-.15.12-.23.18a.64.64,0,0,1,0-.28c.35-.63.71-1.25,1.07-1.87Z"/><path class="cls-1" d="M227.69,28.32a.89.89,0,0,1-.08.29c-.3.55-.62,1.09-.94,1.62,0,.08-.15.12-.23.18,0-.1,0-.21,0-.29.35-.62.71-1.24,1.07-1.86Z"/><path class="cls-1" d="M218.33,46.51c.2-.35.38-.68.58-1,.05-.07.18-.09.28-.13s.05.21,0,.28c-.15.28-.32.55-.47.83S218.51,46.72,218.33,46.51Z"/><path class="cls-1" d="M220.36,47.69c-.26-.06-.31-.18-.19-.38s.3-.56.48-.82c0-.07.16-.08.25-.12s.08.22,0,.29C220.76,47,220.56,47.34,220.36,47.69Z"/><path class="cls-1" d="M225.48,34.73c-.16.28-.31.56-.48.82-.05.07-.16.1-.24.15s0-.19,0-.25l1-1.65c0-.06.15-.08.22-.12s0,.19,0,.26c-.14.27-.3.53-.45.79Z"/><path class="cls-1" d="M227.09,34.41c-.34.59-.68,1.18-1,1.77,0,.07-.14.09-.21.14s0-.19,0-.25c.31-.56.62-1.11,1-1.66,0-.07.15-.09.23-.13Z"/><path class="cls-1" d="M218.94,41.56a6.59,6.59,0,0,1,.34-.57c.05-.06.17-.07.25-.11s.06.19,0,.25c-.22.39-.45.79-.69,1.17,0,.06-.15.07-.23.1s-.07-.2,0-.27a6.65,6.65,0,0,1,.33-.58Z"/><path class="cls-1" d="M226.6,32.27c.16-.27.32-.55.49-.82,0-.06.12-.08.19-.12s0,.17,0,.23c-.31.56-.64,1.13-1,1.69,0,0-.13.07-.19.1s0-.18,0-.25c.14-.28.31-.55.47-.83Z"/><path class="cls-1" d="M219.52,41.93c.11-.2.22-.41.35-.6s.15-.08.22-.12,0,.18,0,.24c-.22.4-.44.79-.68,1.17,0,.06-.15.07-.23.1a.7.7,0,0,1,0-.25c.09-.19.2-.36.31-.55Z"/><path class="cls-1" d="M226.8,31a.71.71,0,0,1-.06.26c-.3.53-.6,1.06-.92,1.59,0,.07-.16.1-.24.15a.72.72,0,0,1,0-.26c.32-.56.65-1.12,1-1.68,0,0,.07-.06.11-.09Z"/><path class="cls-1" d="M222,43.34c-.12.2-.23.41-.36.6s-.13.06-.2.08-.06-.16,0-.21c.22-.42.46-.84.71-1.25,0,0,.14,0,.21-.05s.05.14,0,.19c-.11.22-.24.43-.36.64Z"/><path class="cls-1" d="M219.86,47.9c.26.05.32.17.2.37s-.35.59-.53.91c-.24,0-.36-.12-.2-.38S219.68,48.21,219.86,47.9Z"/><path class="cls-1" d="M228.88,32.2a1,1,0,0,1,0,.32c-.3.55-.61,1.1-.92,1.64,0,.05-.13.08-.19.12s-.06-.17,0-.21c.34-.61.69-1.22,1-1.82Z"/><path class="cls-1" d="M220.1,42.2a6.42,6.42,0,0,1,.34-.56c0-.06.14-.07.22-.11s0,.17,0,.22c-.22.41-.45.81-.7,1.2,0,.06-.13.07-.19.1s-.06-.18,0-.25.23-.4.35-.6Z"/><path class="cls-1" d="M221.16,40.38c.11-.19.22-.39.34-.57s.13-.06.2-.09.06.17,0,.22c-.22.39-.45.78-.68,1.17,0,0-.15.06-.23.09s0-.16,0-.22.22-.41.34-.61Z"/><path class="cls-1" d="M220.83,40.23c-.11.18-.2.37-.32.54s-.14.09-.22.13,0-.19,0-.25c.21-.38.43-.76.67-1.14,0,0,.14-.07.22-.1s0,.18,0,.25a6.55,6.55,0,0,1-.32.58Z"/><path class="cls-1" d="M223,42.37c.24-.41.47-.83.72-1.23,0-.07.16-.09.24-.13a.68.68,0,0,1,0,.28c-.2.37-.41.75-.63,1.11,0,.07-.19.08-.29.11Z"/><path class="cls-1" d="M222.83,41.34c.11-.2.21-.39.33-.57s.13-.06.2-.09.06.17,0,.22c-.22.41-.45.82-.69,1.21,0,0-.11,0-.17.08s-.08-.16-.06-.21c.11-.22.24-.43.36-.64Z"/><path class="cls-1" d="M210,58.13c.19-.34.38-.68.59-1,0,0,.16-.06.23,0a.22.22,0,0,1,.05.2c-.15.28-.3.56-.48.83-.06.08-.21.09-.32.14Z"/><path class="cls-1" d="M216.5,50.39a4.5,4.5,0,0,1-.25.41.32.32,0,0,1-.24,0,.25.25,0,0,1-.07-.2c.16-.3.33-.58.5-.86a.24.24,0,0,1,.21-.06.27.27,0,0,1,.09.22,2.46,2.46,0,0,1-.25.45Z"/><path class="cls-1" d="M217.77,48.16c-.25,0-.34-.13-.2-.35s.29-.53.46-.78c0-.06.17-.05.26-.08s.06.19,0,.25C218.15,47.52,218,47.83,217.77,48.16Z"/><path class="cls-1" d="M212.69,59.77c-.08-.14-.18-.25-.16-.3.17-.34.37-.68.56-1,0,0,.17,0,.19,0a.28.28,0,0,1,0,.22C213.12,59,212.92,59.37,212.69,59.77Z"/><path class="cls-1" d="M216,47.16c-.31-.06-.35-.18-.21-.4s.29-.5.46-.75c0,0,.15,0,.23-.08s.1.2.07.26C216.42,46.52,216.23,46.83,216,47.16Z"/><path class="cls-1" d="M214.43,49.88c-.29-.07-.37-.19-.22-.41s.25-.45.4-.66.18-.09.27-.13.1.22.06.3C214.79,49.28,214.61,49.57,214.43,49.88Z"/><path class="cls-1" d="M217.67,51.76l.61-1.07c.27.05.35.16.2.4s-.25.43-.36.65S217.86,52,217.67,51.76Z"/><path class="cls-1" d="M221.93,38.34c-.13.22-.25.45-.4.67,0,0-.13.05-.2.07s0-.15,0-.19c.27-.48.55-1,.84-1.43,0,0,.12-.05.18-.07s0,.16,0,.22c-.13.25-.28.49-.42.73Z"/><path class="cls-1" d="M218.51,43.65a3.68,3.68,0,0,1,.3-.5c0-.06.14-.07.22-.1s.05.17,0,.22c-.2.36-.4.71-.61,1,0,0-.14.06-.21.09s0-.18,0-.25a5.14,5.14,0,0,1,.29-.51Z"/><path class="cls-1" d="M221.4,44.44c-.24.4-.46.8-.7,1.2,0,0-.14,0-.21.07s-.05-.17,0-.22c.19-.36.39-.71.6-1.06,0-.06.17-.06.26-.09Z"/><path class="cls-1" d="M220.45,44.81c-.1.17-.19.34-.3.5s-.13.06-.2.09-.07-.15,0-.2c.21-.38.42-.74.64-1.11,0,0,.12,0,.17-.07s.07.16,0,.21a6.55,6.55,0,0,1-.32.58Z"/><path class="cls-1" d="M215.26,48.43c-.36-.07-.35-.26-.17-.44s.15-.75.72-.51Z"/><path class="cls-1" d="M219.28,46.27a4.48,4.48,0,0,1,.28-.47s.13-.06.2-.08.07.14,0,.18q-.27.52-.57,1a.2.2,0,0,1-.18,0,.18.18,0,0,1-.05-.17c.08-.18.19-.35.28-.51Z"/><path class="cls-1" d="M217.79,45.43a3.64,3.64,0,0,1-.28.47c0,.05-.14,0-.21.06s-.05-.15,0-.19c.19-.33.38-.66.58-1,0,0,.14,0,.21-.06s0,.17,0,.23-.18.32-.27.48Z"/><path class="cls-1" d="M222.92,36.16c.12-.23.25-.45.39-.67,0-.05.12-.06.19-.09s0,.17,0,.22c-.25.46-.52.91-.79,1.36,0,.05-.13.06-.2.09s0-.16,0-.22c.12-.24.26-.47.4-.7Z"/><path class="cls-1" d="M225.29,37.56c-.12.21-.23.43-.37.63s-.14.1-.21.14,0-.18,0-.24c.24-.45.5-.89.76-1.34,0,0,.12-.07.19-.11s0,.18,0,.25c-.11.23-.25.44-.38.67Z"/><path class="cls-1" d="M218.12,45.57c.09-.15.17-.3.27-.44s.13-.06.2-.09.08.16,0,.21c-.18.33-.38.66-.58,1,0,0-.12,0-.18.06s-.07-.15,0-.21.19-.34.29-.51Z"/><path class="cls-1" d="M229.13,24.69l.18-.31c.25.14.47.29.71.41s.23.25,0,.43Z"/><path class="cls-1" d="M217.28,49a1.92,1.92,0,0,1-.18.31c0,.05-.16.05-.24.08s-.09-.2-.06-.26a4,4,0,0,1,.37-.63c0-.06.16-.06.25-.09a.66.66,0,0,1,0,.27,1.14,1.14,0,0,1-.18.32Z"/><path class="cls-1" d="M231.2,25.89c.06-.28.18-.34.39-.19s.32.19.48.27.24.27,0,.44Z"/><path class="cls-1" d="M231.41,20.73l.15-.3c.31.18.61.34.89.53,0,0,0,.19-.07.34Z"/><path class="cls-1" d="M219,49.4c.25.05.32.17.17.39a3.72,3.72,0,0,0-.27.48c-.11.22-.23.27-.44,0Z"/><path class="cls-1" d="M233.49,21.94c.16-.37.33-.33,1.07.25l-.16.27Z"/><path class="cls-1" d="M233.41,24.14c-.15.37-.31.33-1-.23C232.41,23.51,232.47,23.54,233.41,24.14Z"/><path class="cls-1" d="M231.19,23.24l-.91-.52c.05-.25.15-.34.38-.19a4.21,4.21,0,0,0,.51.29C231.42,22.94,231.37,23.07,231.19,23.24Z"/><path class="cls-1" d="M219.3,44.11c-.1.17-.19.35-.3.5s-.15.07-.22.11-.05-.17,0-.23c.2-.35.4-.7.61-1,0-.05.13-.06.2-.09s.05.18,0,.25-.19.34-.28.51Z"/><path class="cls-1" d="M216.28,47.46c.25-.44.44-.77.64-1.09,0,0,.13-.06.19-.09s.07.18,0,.24c-.16.29-.33.58-.51.85C216.6,47.43,216.47,47.42,216.28,47.46Z"/><path class="cls-1" d="M229.81,28.26l.63-1.08h.12c0,.13.08.28,0,.37C230.28,28.12,230,28.34,229.81,28.26Z"/><path class="cls-1" d="M216,51.3c-.14.24-.27.49-.42.72,0,.06-.17,0-.26.08s-.09-.18-.06-.24a3.59,3.59,0,0,1,.37-.63c.05-.07.22,0,.33-.06Z"/><path class="cls-1" d="M222.29,41c.11-.19.21-.39.33-.57s.13-.06.2-.09.05.16,0,.22c-.22.4-.45.81-.69,1.21,0,0-.11.05-.17.08s-.08-.16,0-.21A5.79,5.79,0,0,1,222.29,41Z"/><path class="cls-1" d="M217.45,52.14c.24,0,.33.13.2.35s-.21.39-.33.56-.16.06-.24.08S217,53,217,52.89C217.15,52.64,217.3,52.39,217.45,52.14Z"/><path class="cls-1" d="M212.16,59.15c0-.1-.13-.22-.1-.28a3.68,3.68,0,0,1,.39-.7c0-.05.14,0,.21-.05s.07.19,0,.25c-.13.26-.28.51-.43.76Z"/><path class="cls-1" d="M229.31,26.54c-.16.31-.32.63-.49.94,0,.06-.13.08-.19.12s-.07-.17,0-.24a4.36,4.36,0,0,1,.33-.77c.05-.09.22-.11.33-.17Z"/><path class="cls-1" d="M221.46,43a6.59,6.59,0,0,1-.34.57c0,.06-.15.07-.22.11s0-.17,0-.22c.22-.41.45-.81.69-1.21,0-.05.14-.05.21-.08s0,.16,0,.22c-.1.21-.22.41-.34.61Z"/><path class="cls-1" d="M217.07,50.72a3.45,3.45,0,0,1-.25.41.27.27,0,0,1-.17.07c0-.05-.1-.16-.08-.2.16-.3.33-.6.51-.89a.21.21,0,0,1,.18,0s.08.15.05.2a2.85,2.85,0,0,1-.25.45Z"/><path class="cls-1" d="M217.47,47.25a4.62,4.62,0,0,1-.28.48.19.19,0,0,1-.18,0,.18.18,0,0,1-.06-.17c.17-.31.35-.62.54-.92,0-.05.14,0,.21-.05s.05.14,0,.18a4,4,0,0,1-.26.45Z"/><path class="cls-1" d="M215.05,49.52a2.8,2.8,0,0,1,.25-.41s.14,0,.21-.06.06.16,0,.21c-.15.28-.31.55-.48.82,0,.05-.13.06-.2.09s-.07-.18,0-.24a2.71,2.71,0,0,1,.23-.41Z"/><path class="cls-1" d="M218.65,48a2.8,2.8,0,0,1-.25.41c0,.05-.13.06-.2.08s-.07-.16,0-.21c.15-.3.33-.6.51-.89,0,0,.13,0,.2-.06s0,.16,0,.22a2.85,2.85,0,0,1-.25.45Z"/><path class="cls-1" d="M217.66,51a3.45,3.45,0,0,1-.25.41c0,.05-.13.06-.2.08s-.08-.16-.06-.2c.15-.29.32-.58.49-.86,0-.05.14,0,.21-.06s.06.16,0,.22a4.23,4.23,0,0,1-.23.41Z"/><path class="cls-1" d="M219.22,48.28a2.75,2.75,0,0,1-.24.41.52.52,0,0,1-.23.08c0-.07-.05-.16,0-.22.15-.29.31-.58.49-.86,0,0,.13,0,.2-.08s.07.16.05.22-.17.3-.25.45Z"/><path class="cls-1" d="M215.88,50a3.45,3.45,0,0,1-.25.41c0,.05-.12.06-.19.09s-.09-.16-.07-.2c.16-.3.32-.58.5-.86,0,0,.13,0,.21-.06s0,.15,0,.21a3.3,3.3,0,0,1-.23.41Z"/><path class="cls-1" d="M214.18,50.28c-.14.24-.27.49-.42.72,0,0-.16,0-.23.08s-.09-.2-.06-.27a2.7,2.7,0,0,1,.34-.56c.07-.07.21-.08.32-.12Z"/><path class="cls-1" d="M211.68,58.73l-.31-.18.49-.84C212.25,57.77,212.28,57.81,211.68,58.73Z"/><path class="cls-1" d="M214.79,53.35c-.31-.07-.34-.2-.2-.41s.17-.32.28-.46.18,0,.27-.06.07.18,0,.24C215.07,52.9,214.92,53.12,214.79,53.35Z"/><path class="cls-1" d="M210.72,58.25c.15-.24.28-.49.43-.73,0-.07.17-.09.25-.13s.06.2,0,.28a3.25,3.25,0,0,1-.33.57c-.06.08-.21.09-.31.14Z"/><path class="cls-1" d="M213,52.31c-.3-.06-.34-.18-.2-.39s.18-.32.29-.46.17-.05.27-.07.06.18,0,.25S213.14,52.08,213,52.31Z"/><path class="cls-1" d="M216.57,54.38c-.28-.06-.34-.17-.2-.39s.18-.32.29-.47.15-.06.23-.09.1.2.07.26C216.85,53.93,216.7,54.15,216.57,54.38Z"/><path class="cls-1" d="M202.07,74.53l.32-.56.44.17-.36.62Z"/><path class="cls-1" d="M219.85,46.56a4,4,0,0,1,.27-.44s.13-.06.2-.08.07.14,0,.18c-.18.35-.37.69-.57,1a.17.17,0,0,1-.18,0,.18.18,0,0,1-.05-.17c.09-.19.2-.36.3-.54Z"/><path class="cls-1" d="M211.22,54.6c.37.19.34.33-.1.83l-.29-.17Z"/><path class="cls-1" d="M216.39,54.7l-.48.83c-.1-.1-.24-.21-.23-.25a3.55,3.55,0,0,1,.36-.63S216.23,54.68,216.39,54.7Z"/><path class="cls-1" d="M212.19,52.82c.15-.09.35-.27.43-.23.29.15,0,.31-.06.47a.4.4,0,0,1-.11.19,1.42,1.42,0,0,1-.29.1,1.33,1.33,0,0,1,0-.28c0-.06.07-.12.1-.19Z"/><path class="cls-1" d="M210.52,56.46l-.29-.19.37-.63C211,55.68,211,55.83,210.52,56.46Z"/><path class="cls-1" d="M215.37,56.52l-.32-.18a3.64,3.64,0,0,1,.33-.55s.17,0,.24,0a.24.24,0,0,1,.07.2C215.6,56.15,215.49,56.33,215.37,56.52Z"/><path class="cls-1" d="M214.12,54.46l-.28-.16.42-.73C214.65,53.59,214.65,53.7,214.12,54.46Z"/><path class="cls-1" d="M216.93,48.18c-.15.27-.3.54-.47.8,0,.05-.13.06-.2.08s-.07-.16,0-.21a4.72,4.72,0,0,1,.41-.68c0-.06.17-.06.26-.09Z"/><path class="cls-1" d="M216.09,48.32a2.43,2.43,0,0,1-.2.35s-.12,0-.18.07-.09-.16-.06-.21a6,6,0,0,1,.4-.7s.14,0,.21-.07.06.15,0,.21a2,2,0,0,1-.2.35Z"/><path class="cls-1" d="M217.56,49.13l.46-.35a4.81,4.81,0,0,1-.16.54.94.94,0,0,1-.2.35s-.13,0-.2.08-.07-.16-.05-.21a2.53,2.53,0,0,1,.2-.36Z"/><path class="cls-1" d="M218.19,49.48a3.14,3.14,0,0,1,.18-.31s.14-.05.2-.07.08.16.05.21a6.29,6.29,0,0,1-.37.67c0,.05-.15.06-.22.09s-.06-.17,0-.24a1.63,1.63,0,0,1,.19-.34Z"/><path class="cls-1" d="M216.56,52.19l.47-.34a4.81,4.81,0,0,1-.16.54,1,1,0,0,1-.18.32s-.13,0-.2.08-.08-.16-.06-.22a2.58,2.58,0,0,1,.18-.32Z"/><path class="cls-1" d="M216,51.82l.45-.3a4.07,4.07,0,0,1-.13.5,1.26,1.26,0,0,1-.18.32c0,.06-.15.07-.23.11a.69.69,0,0,1,0-.24,1.23,1.23,0,0,1,.17-.32Z"/><path class="cls-1" d="M214.57,51.07c-.15.12-.4.36-.42.33-.27-.22.07-.35.12-.54a.84.84,0,0,1,.19-.31s.13,0,.2-.06.06.15,0,.21a2.58,2.58,0,0,1-.18.32Z"/><path class="cls-1" d="M214.84,51.2a2.07,2.07,0,0,1,.19-.32s.13,0,.2-.06.07.16.05.21a5,5,0,0,1-.37.63c0,.06-.15.05-.23.08s-.05-.16,0-.22a1.26,1.26,0,0,1,.18-.32Z"/><path class="cls-1" d="M214.49,57.37l.37-.64c.4.12.39.24-.08.8a1,1,0,0,1-.16-.06A.57.57,0,0,1,214.49,57.37Z"/><path class="cls-1" d="M203.42,75.4l.42-.74.33.13a6.36,6.36,0,0,1-.38.64S203.59,75.41,203.42,75.4Z"/><path class="cls-1" d="M213.81,52.23a3.14,3.14,0,0,1-.18.31c0,.05-.14,0-.21.06s-.07-.16,0-.21a3.6,3.6,0,0,1,.31-.54c.05-.06.16-.08.25-.12a1.31,1.31,0,0,1,0,.28.94.94,0,0,1-.12.22Z"/><path class="cls-1" d="M214.29,57.74c.37.17.36.27-.09.82l-.29-.16Z"/><path class="cls-1" d="M213.51,55.58c-.11-.18-.24-.32-.21-.37a1.65,1.65,0,0,1,.4-.54c.06-.05.28.08.17.29S213.67,55.29,213.51,55.58Z"/><path class="cls-1" d="M214.09,52.35l.42-.29c0,.17-.07.34-.12.5a.58.58,0,0,1-.15.25.92.92,0,0,1-.24.13.53.53,0,0,1,.13-.53Z"/><path class="cls-1" d="M213,56.5l-.34-.19a5.5,5.5,0,0,1,.32-.54.26.26,0,0,1,.24,0,.26.26,0,0,1,.09.22A6.26,6.26,0,0,1,213,56.5Z"/><path class="cls-1" d="M212.37,57.51l-.3-.17.37-.64C212.85,56.8,212.84,56.84,212.37,57.51Z"/><path class="cls-1" d="M215.26,53.11c.18-.14.41-.37.44-.34.24.2,0,.35-.11.51a1.78,1.78,0,0,1-.36.37Z"/><path class="cls-1" d="M215.9,54.1c-.08-.14-.18-.25-.16-.3a4.91,4.91,0,0,1,.37-.67s.16-.06.18,0,.09.15.06.2C216.23,53.54,216.09,53.77,215.9,54.1Z"/><path class="cls-1" d="M211.39,54.34a4.7,4.7,0,0,1,.36-.62c.05,0,.21,0,.32,0a4.11,4.11,0,0,1-.28.6C211.76,54.38,211.58,54.34,211.39,54.34Z"/><path class="cls-1" d="M213.18,57.55a1.1,1.1,0,0,1-.14.21.69.69,0,0,1-.22,0,1.06,1.06,0,0,1,.06-.37,1.84,1.84,0,0,1,.35-.33c0,.07.09.14.08.2a.89.89,0,0,1-.14.25Z"/><path class="cls-1" d="M213.78,57.91a2,2,0,0,1-.24.26.44.44,0,0,1-.19-.12,4.82,4.82,0,0,1,.35-.63.7.7,0,0,1,.2.08A2.12,2.12,0,0,1,213.78,57.91Z"/><path class="cls-1" d="M211.34,56.47a.67.67,0,0,1-.13.22.27.27,0,0,1-.21,0,.24.24,0,0,1-.06-.2,1.3,1.3,0,0,1,.22-.38c.06-.06.17-.07.26-.11a2.62,2.62,0,0,1,0,.28s-.05.1-.08.16Z"/><path class="cls-1" d="M205.21,73.75l1,.57v.08a.76.76,0,0,1-.21,0c-.24-.11-.49-.21-.72-.34-.08,0-.1-.18-.14-.28Z"/><path class="cls-1" d="M214.93,55.83a.59.59,0,0,1-.11.19.84.84,0,0,1-.24.07c0-.07-.06-.16,0-.22a1.22,1.22,0,0,1,.2-.35,1,1,0,0,1,.25-.13,1.41,1.41,0,0,1,0,.28C215,55.73,215,55.78,214.93,55.83Z"/><path class="cls-1" d="M202.85,75c.22-.6.28-.65.6-.49C203.3,75.06,203.14,75.19,202.85,75Z"/><path class="cls-1" d="M214.36,56.86a1.13,1.13,0,0,1-.17.24s-.13,0-.18,0-.1-.11-.08-.14a5.54,5.54,0,0,1,.3-.53s.14,0,.19,0a.21.21,0,0,1,.06.17A1,1,0,0,1,214.36,56.86Z"/><path class="cls-1" d="M228.5,26.13c.16.19-.05.86-.38,1.17A1.65,1.65,0,0,1,228.5,26.13Z"/><path class="cls-1" d="M215.52,54.8c0,.06-.06.14-.12.18a1.23,1.23,0,0,1-.23.11c0-.09-.06-.18,0-.25a1.52,1.52,0,0,1,.24-.41c0-.07.16-.09.24-.14a.9.9,0,0,1,0,.28.8.8,0,0,1-.11.23Z"/><path class="cls-1" d="M212.83,53.19c.13-.09.34-.29.38-.26.27.19-.05.32-.08.48a.34.34,0,0,1-.1.16l-.24.14c0-.1,0-.21,0-.31a.89.89,0,0,1,.09-.16Z"/><path class="cls-1" d="M231.26,27.65l-.8,1C230.32,28.39,230.87,27.66,231.26,27.65Z"/><path class="cls-1" d="M214.94,54.44a.93.93,0,0,1-.14.22.61.61,0,0,1-.2.09c0-.08-.07-.17,0-.23a2,2,0,0,1,.25-.45c0-.06.15-.08.22-.12a1.36,1.36,0,0,1,0,.27A.68.68,0,0,1,214.94,54.44Z"/><path class="cls-1" d="M211.48,55.6a5.09,5.09,0,0,1,.3-.5c0-.05.15-.05.23-.08s.07.16.05.22a1.47,1.47,0,0,1-.24.4c-.06.07-.19.07-.28.1Z"/><path class="cls-1" d="M213.47,53.56a.67.67,0,0,1,.13-.22.78.78,0,0,1,.23-.08c0,.08,0,.16,0,.22a1.73,1.73,0,0,1-.25.44c0,.07-.17.08-.25.11a.7.7,0,0,1,0-.25,1.27,1.27,0,0,1,.12-.23Z"/><path class="cls-1" d="M213.77,56.52a1.46,1.46,0,0,1-.2.27s-.12,0-.19,0a3.36,3.36,0,0,1,.14-.45,1.55,1.55,0,0,1,.26-.25c0,.05.14.11.13.15A1.83,1.83,0,0,1,213.77,56.52Z"/><path class="cls-1" d="M212.51,54.46c0,.07,0,.16-.11.19a.61.61,0,0,1-.24,0,1.6,1.6,0,0,1,.13-.44c.06-.1.19-.16.29-.25a.77.77,0,0,1,.06.24c0,.08-.08.15-.12.23Z"/><path class="cls-1" d="M202.23,72l-.28.47-.26-.13C201.83,71.86,201.91,71.81,202.23,72Z"/><path class="cls-1" d="M203.39,73.19,203,73l.24-.41.39.23Z"/><path class="cls-1" d="M213.09,54.8A.74.74,0,0,1,213,55a.2.2,0,0,1-.18,0,.21.21,0,0,1-.07-.17.43.43,0,0,1,.12-.22c.12-.1.08-.43.35-.27.06,0,0,.28,0,.43Z"/><path class="cls-1" d="M212.51,55.82c0,.06-.06.14-.12.18a.26.26,0,0,1-.2.06.24.24,0,0,1-.06-.2,1.79,1.79,0,0,1,.22-.38.69.69,0,0,1,.25-.1.45.45,0,0,1-.09.44Z"/><path class="cls-1" d="M211.92,56.83c0,.07-.07.17-.14.21s-.14,0-.21,0a1.57,1.57,0,0,1,.1-.44c.07-.11.21-.17.32-.26,0,.07.08.15.06.21A1.19,1.19,0,0,1,211.92,56.83Z"/><path class="cls-1" d="M214.33,55.5a.86.86,0,0,1-.11.19.65.65,0,0,1-.21.07c0-.07-.08-.16,0-.21a1.39,1.39,0,0,1,.23-.41s.15,0,.23-.07.05.15,0,.21a.68.68,0,0,1-.12.22Z"/><path class="cls-1" d="M201.73,74.32c-.26-.06-.31-.17-.18-.39s.22-.35.47-.11Z"/><path class="cls-1" d="M201.41,73.45l-.32.55c-.1-.09-.24-.17-.24-.24a.64.64,0,0,1,.19-.34C201.1,73.38,201.25,73.43,201.41,73.45Z"/><path class="cls-1" d="M202.46,72.21c.32.08.48.15.31.37s-.22.11-.33.17Z"/><path class="cls-1" d="M203.74,73.39l.2-.4c.1.09.21.14.26.23s0,.19-.1.2A1,1,0,0,1,203.74,73.39Z"/><path class="cls-1" d="M228.87,28.11a2,2,0,0,1,.3.33s-.08.18-.14.18-.22,0-.24-.1S228.82,28.31,228.87,28.11Z"/><text class="cls-2" transform="matrix(0.83, -0.55, 0.55, 0.83, 36.8, 82.21)">A</text><text class="cls-2" transform="translate(65.71 63.31) rotate(-18.74)">L</text><text class="cls-2" transform="translate(88.91 54.87) rotate(-5.13)">E</text><text class="cls-2" transform="translate(117.6 51.81) rotate(9.77)">X</text><text class="cls-2" transform="translate(148.28 57.76) rotate(21.34)">I</text><text class="cls-2" transform="matrix(0.83, 0.56, -0.56, 0.83, 161.94, 61.63)">A</text><text class="cls-3" transform="translate(45.73 101.24) rotate(-35.96)">U</text><text class="cls-3" transform="translate(56.38 93.59) rotate(-30.14)">T</text><text class="cls-3" transform="translate(64.88 88.55) rotate(-24.38)">H</text><text class="cls-3" transform="translate(76.46 83.31) rotate(-18.13)">A</text><text class="cls-3" transform="translate(86.25 80.06) rotate(-13.35)">Y</text><text class="cls-3" transform="translate(94.38 78.02) rotate(-8.59)">A</text><text class="cls-3" transform="matrix(1, -0.05, 0.05, 1, 106.07, 76.27)">K</text><text class="cls-3" transform="translate(116.31 75.65) rotate(2.83)">U</text><text class="cls-3" transform="matrix(0.98, 0.18, -0.18, 0.98, 129.31, 76.1)">M</text><text class="cls-3" transform="matrix(0.95, 0.31, -0.31, 0.95, 146.5, 79.47)">A</text><text class="cls-3" transform="matrix(0.91, 0.4, -0.4, 0.91, 157.72, 83.11)">R</text><text class="cls-3" transform="translate(167.83 87.55) rotate(29.66)">A</text><text class="cls-3" transform="matrix(0.81, 0.59, -0.59, 0.81, 178.08, 93.31)">N</text></g></g></svg>